<?xml version="1.0" encoding="utf-8" standalone="no"?>
<!DOCTYPE svg PUBLIC "-//W3C//DTD SVG 1.1//EN"
  "http://www.w3.org/Graphics/SVG/1.1/DTD/svg11.dtd">
<svg xmlns:xlink="http://www.w3.org/1999/xlink" width="800.398707pt" height="656.39952pt" viewBox="0 0 800.398707 656.39952" xmlns="http://www.w3.org/2000/svg" version="1.1">
 <metadata>
  <rdf:RDF xmlns:dc="http://purl.org/dc/elements/1.1/" xmlns:cc="http://creativecommons.org/ns#" xmlns:rdf="http://www.w3.org/1999/02/22-rdf-syntax-ns#">
   <cc:Work>
    <dc:type rdf:resource="http://purl.org/dc/dcmitype/StillImage"/>
    <dc:date>2026-04-17T18:38:35.481731</dc:date>
    <dc:format>image/svg+xml</dc:format>
    <dc:creator>
     <cc:Agent>
      <dc:title>Matplotlib v3.9.0, https://matplotlib.org/</dc:title>
     </cc:Agent>
    </dc:creator>
   </cc:Work>
  </rdf:RDF>
 </metadata>
 <defs>
  <style type="text/css">*{stroke-linejoin: round; stroke-linecap: butt}</style>
 </defs>
 <g id="figure_1">
  <g id="patch_1">
   <path d="M 0 656.39952 
L 800.398707 656.39952 
L 800.398707 0 
L 0 0 
z
" style="fill: #ffffff"/>
  </g>
  <g id="axes_1">
   <g id="patch_2">
    <path d="M 58.001719 228.627486 
L 733.827965 228.627486 
L 733.827965 57.654292 
L 58.001719 57.654292 
z
" style="fill: #ffffff"/>
   </g>
   <g id="matplotlib.axis_1">
    <g id="xtick_1">
     <g id="line2d_1">
      <defs>
       <path id="m942043d973" d="M 0 0 
L 0 3.5 
" style="stroke: #000000; stroke-width: 0.8"/>
      </defs>
      <g>
       <use xlink:href="#m942043d973" x="83.666007" y="228.627486" style="stroke: #000000; stroke-width: 0.8"/>
      </g>
     </g>
    </g>
    <g id="xtick_2">
     <g id="line2d_2">
      <g>
       <use xlink:href="#m942043d973" x="169.213633" y="228.627486" style="stroke: #000000; stroke-width: 0.8"/>
      </g>
     </g>
    </g>
    <g id="xtick_3">
     <g id="line2d_3">
      <g>
       <use xlink:href="#m942043d973" x="254.761259" y="228.627486" style="stroke: #000000; stroke-width: 0.8"/>
      </g>
     </g>
    </g>
    <g id="xtick_4">
     <g id="line2d_4">
      <g>
       <use xlink:href="#m942043d973" x="340.308885" y="228.627486" style="stroke: #000000; stroke-width: 0.8"/>
      </g>
     </g>
    </g>
    <g id="xtick_5">
     <g id="line2d_5">
      <g>
       <use xlink:href="#m942043d973" x="425.856511" y="228.627486" style="stroke: #000000; stroke-width: 0.8"/>
      </g>
     </g>
    </g>
    <g id="xtick_6">
     <g id="line2d_6">
      <g>
       <use xlink:href="#m942043d973" x="511.404137" y="228.627486" style="stroke: #000000; stroke-width: 0.8"/>
      </g>
     </g>
    </g>
    <g id="xtick_7">
     <g id="line2d_7">
      <g>
       <use xlink:href="#m942043d973" x="596.951763" y="228.627486" style="stroke: #000000; stroke-width: 0.8"/>
      </g>
     </g>
    </g>
    <g id="xtick_8">
     <g id="line2d_8">
      <g>
       <use xlink:href="#m942043d973" x="682.499389" y="228.627486" style="stroke: #000000; stroke-width: 0.8"/>
      </g>
     </g>
    </g>
   </g>
   <g id="matplotlib.axis_2">
    <g id="ytick_1">
     <g id="line2d_9">
      <path d="M 58.001719 220.855977 
L 733.827965 220.855977 
" clip-path="url(#pc414a48edc)" style="fill: none; stroke: #dddddd; stroke-width: 0.8; stroke-linecap: square"/>
     </g>
     <g id="line2d_10">
      <defs>
       <path id="m8d2aa5da3c" d="M 0 0 
L -3.5 0 
" style="stroke: #000000; stroke-width: 0.8"/>
      </defs>
      <g>
       <use xlink:href="#m8d2aa5da3c" x="58.001719" y="220.855977" style="stroke: #000000; stroke-width: 0.8"/>
      </g>
     </g>
     <g id="text_1">
      <!-- 0.0 -->
      <g transform="translate(37.484063 224.085313) scale(0.085 -0.085)">
       <defs>
        <path id="DejaVuSans-30" d="M 2034 4250 
Q 1547 4250 1301 3770 
Q 1056 3291 1056 2328 
Q 1056 1369 1301 889 
Q 1547 409 2034 409 
Q 2525 409 2770 889 
Q 3016 1369 3016 2328 
Q 3016 3291 2770 3770 
Q 2525 4250 2034 4250 
z
M 2034 4750 
Q 2819 4750 3233 4129 
Q 3647 3509 3647 2328 
Q 3647 1150 3233 529 
Q 2819 -91 2034 -91 
Q 1250 -91 836 529 
Q 422 1150 422 2328 
Q 422 3509 836 4129 
Q 1250 4750 2034 4750 
z
" transform="scale(0.015625)"/>
        <path id="DejaVuSans-2e" d="M 684 794 
L 1344 794 
L 1344 0 
L 684 0 
L 684 794 
z
" transform="scale(0.015625)"/>
       </defs>
       <use xlink:href="#DejaVuSans-30"/>
       <use xlink:href="#DejaVuSans-2e" x="63.623047"/>
       <use xlink:href="#DejaVuSans-30" x="95.410156"/>
      </g>
     </g>
    </g>
    <g id="ytick_2">
     <g id="line2d_11">
      <path d="M 58.001719 198.93198 
L 733.827965 198.93198 
" clip-path="url(#pc414a48edc)" style="fill: none; stroke: #dddddd; stroke-width: 0.8; stroke-linecap: square"/>
     </g>
     <g id="line2d_12">
      <g>
       <use xlink:href="#m8d2aa5da3c" x="58.001719" y="198.93198" style="stroke: #000000; stroke-width: 0.8"/>
      </g>
     </g>
     <g id="text_2">
      <!-- 0.2 -->
      <g transform="translate(37.484063 202.161316) scale(0.085 -0.085)">
       <defs>
        <path id="DejaVuSans-32" d="M 1228 531 
L 3431 531 
L 3431 0 
L 469 0 
L 469 531 
Q 828 903 1448 1529 
Q 2069 2156 2228 2338 
Q 2531 2678 2651 2914 
Q 2772 3150 2772 3378 
Q 2772 3750 2511 3984 
Q 2250 4219 1831 4219 
Q 1534 4219 1204 4116 
Q 875 4013 500 3803 
L 500 4441 
Q 881 4594 1212 4672 
Q 1544 4750 1819 4750 
Q 2544 4750 2975 4387 
Q 3406 4025 3406 3419 
Q 3406 3131 3298 2873 
Q 3191 2616 2906 2266 
Q 2828 2175 2409 1742 
Q 1991 1309 1228 531 
z
" transform="scale(0.015625)"/>
       </defs>
       <use xlink:href="#DejaVuSans-30"/>
       <use xlink:href="#DejaVuSans-2e" x="63.623047"/>
       <use xlink:href="#DejaVuSans-32" x="95.410156"/>
      </g>
     </g>
    </g>
    <g id="ytick_3">
     <g id="line2d_13">
      <path d="M 58.001719 177.007983 
L 733.827965 177.007983 
" clip-path="url(#pc414a48edc)" style="fill: none; stroke: #dddddd; stroke-width: 0.8; stroke-linecap: square"/>
     </g>
     <g id="line2d_14">
      <g>
       <use xlink:href="#m8d2aa5da3c" x="58.001719" y="177.007983" style="stroke: #000000; stroke-width: 0.8"/>
      </g>
     </g>
     <g id="text_3">
      <!-- 0.4 -->
      <g transform="translate(37.484063 180.237319) scale(0.085 -0.085)">
       <defs>
        <path id="DejaVuSans-34" d="M 2419 4116 
L 825 1625 
L 2419 1625 
L 2419 4116 
z
M 2253 4666 
L 3047 4666 
L 3047 1625 
L 3713 1625 
L 3713 1100 
L 3047 1100 
L 3047 0 
L 2419 0 
L 2419 1100 
L 313 1100 
L 313 1709 
L 2253 4666 
z
" transform="scale(0.015625)"/>
       </defs>
       <use xlink:href="#DejaVuSans-30"/>
       <use xlink:href="#DejaVuSans-2e" x="63.623047"/>
       <use xlink:href="#DejaVuSans-34" x="95.410156"/>
      </g>
     </g>
    </g>
    <g id="ytick_4">
     <g id="line2d_15">
      <path d="M 58.001719 155.083986 
L 733.827965 155.083986 
" clip-path="url(#pc414a48edc)" style="fill: none; stroke: #dddddd; stroke-width: 0.8; stroke-linecap: square"/>
     </g>
     <g id="line2d_16">
      <g>
       <use xlink:href="#m8d2aa5da3c" x="58.001719" y="155.083986" style="stroke: #000000; stroke-width: 0.8"/>
      </g>
     </g>
     <g id="text_4">
      <!-- 0.6 -->
      <g transform="translate(37.484063 158.313322) scale(0.085 -0.085)">
       <defs>
        <path id="DejaVuSans-36" d="M 2113 2584 
Q 1688 2584 1439 2293 
Q 1191 2003 1191 1497 
Q 1191 994 1439 701 
Q 1688 409 2113 409 
Q 2538 409 2786 701 
Q 3034 994 3034 1497 
Q 3034 2003 2786 2293 
Q 2538 2584 2113 2584 
z
M 3366 4563 
L 3366 3988 
Q 3128 4100 2886 4159 
Q 2644 4219 2406 4219 
Q 1781 4219 1451 3797 
Q 1122 3375 1075 2522 
Q 1259 2794 1537 2939 
Q 1816 3084 2150 3084 
Q 2853 3084 3261 2657 
Q 3669 2231 3669 1497 
Q 3669 778 3244 343 
Q 2819 -91 2113 -91 
Q 1303 -91 875 529 
Q 447 1150 447 2328 
Q 447 3434 972 4092 
Q 1497 4750 2381 4750 
Q 2619 4750 2861 4703 
Q 3103 4656 3366 4563 
z
" transform="scale(0.015625)"/>
       </defs>
       <use xlink:href="#DejaVuSans-30"/>
       <use xlink:href="#DejaVuSans-2e" x="63.623047"/>
       <use xlink:href="#DejaVuSans-36" x="95.410156"/>
      </g>
     </g>
    </g>
    <g id="ytick_5">
     <g id="line2d_17">
      <path d="M 58.001719 133.15999 
L 733.827965 133.15999 
" clip-path="url(#pc414a48edc)" style="fill: none; stroke: #dddddd; stroke-width: 0.8; stroke-linecap: square"/>
     </g>
     <g id="line2d_18">
      <g>
       <use xlink:href="#m8d2aa5da3c" x="58.001719" y="133.15999" style="stroke: #000000; stroke-width: 0.8"/>
      </g>
     </g>
     <g id="text_5">
      <!-- 0.8 -->
      <g transform="translate(37.484063 136.389326) scale(0.085 -0.085)">
       <defs>
        <path id="DejaVuSans-38" d="M 2034 2216 
Q 1584 2216 1326 1975 
Q 1069 1734 1069 1313 
Q 1069 891 1326 650 
Q 1584 409 2034 409 
Q 2484 409 2743 651 
Q 3003 894 3003 1313 
Q 3003 1734 2745 1975 
Q 2488 2216 2034 2216 
z
M 1403 2484 
Q 997 2584 770 2862 
Q 544 3141 544 3541 
Q 544 4100 942 4425 
Q 1341 4750 2034 4750 
Q 2731 4750 3128 4425 
Q 3525 4100 3525 3541 
Q 3525 3141 3298 2862 
Q 3072 2584 2669 2484 
Q 3125 2378 3379 2068 
Q 3634 1759 3634 1313 
Q 3634 634 3220 271 
Q 2806 -91 2034 -91 
Q 1263 -91 848 271 
Q 434 634 434 1313 
Q 434 1759 690 2068 
Q 947 2378 1403 2484 
z
M 1172 3481 
Q 1172 3119 1398 2916 
Q 1625 2713 2034 2713 
Q 2441 2713 2670 2916 
Q 2900 3119 2900 3481 
Q 2900 3844 2670 4047 
Q 2441 4250 2034 4250 
Q 1625 4250 1398 4047 
Q 1172 3844 1172 3481 
z
" transform="scale(0.015625)"/>
       </defs>
       <use xlink:href="#DejaVuSans-30"/>
       <use xlink:href="#DejaVuSans-2e" x="63.623047"/>
       <use xlink:href="#DejaVuSans-38" x="95.410156"/>
      </g>
     </g>
    </g>
    <g id="ytick_6">
     <g id="line2d_19">
      <path d="M 58.001719 111.235993 
L 733.827965 111.235993 
" clip-path="url(#pc414a48edc)" style="fill: none; stroke: #dddddd; stroke-width: 0.8; stroke-linecap: square"/>
     </g>
     <g id="line2d_20">
      <g>
       <use xlink:href="#m8d2aa5da3c" x="58.001719" y="111.235993" style="stroke: #000000; stroke-width: 0.8"/>
      </g>
     </g>
     <g id="text_6">
      <!-- 1.0 -->
      <g transform="translate(37.484063 114.465329) scale(0.085 -0.085)">
       <defs>
        <path id="DejaVuSans-31" d="M 794 531 
L 1825 531 
L 1825 4091 
L 703 3866 
L 703 4441 
L 1819 4666 
L 2450 4666 
L 2450 531 
L 3481 531 
L 3481 0 
L 794 0 
L 794 531 
z
" transform="scale(0.015625)"/>
       </defs>
       <use xlink:href="#DejaVuSans-31"/>
       <use xlink:href="#DejaVuSans-2e" x="63.623047"/>
       <use xlink:href="#DejaVuSans-30" x="95.410156"/>
      </g>
     </g>
    </g>
    <g id="ytick_7">
     <g id="line2d_21">
      <path d="M 58.001719 89.311996 
L 733.827965 89.311996 
" clip-path="url(#pc414a48edc)" style="fill: none; stroke: #dddddd; stroke-width: 0.8; stroke-linecap: square"/>
     </g>
     <g id="line2d_22">
      <g>
       <use xlink:href="#m8d2aa5da3c" x="58.001719" y="89.311996" style="stroke: #000000; stroke-width: 0.8"/>
      </g>
     </g>
     <g id="text_7">
      <!-- 1.2 -->
      <g transform="translate(37.484063 92.541332) scale(0.085 -0.085)">
       <use xlink:href="#DejaVuSans-31"/>
       <use xlink:href="#DejaVuSans-2e" x="63.623047"/>
       <use xlink:href="#DejaVuSans-32" x="95.410156"/>
      </g>
     </g>
    </g>
    <g id="ytick_8">
     <g id="line2d_23">
      <path d="M 58.001719 67.387999 
L 733.827965 67.387999 
" clip-path="url(#pc414a48edc)" style="fill: none; stroke: #dddddd; stroke-width: 0.8; stroke-linecap: square"/>
     </g>
     <g id="line2d_24">
      <g>
       <use xlink:href="#m8d2aa5da3c" x="58.001719" y="67.387999" style="stroke: #000000; stroke-width: 0.8"/>
      </g>
     </g>
     <g id="text_8">
      <!-- 1.4 -->
      <g transform="translate(37.484063 70.617335) scale(0.085 -0.085)">
       <use xlink:href="#DejaVuSans-31"/>
       <use xlink:href="#DejaVuSans-2e" x="63.623047"/>
       <use xlink:href="#DejaVuSans-34" x="95.410156"/>
      </g>
     </g>
    </g>
    <g id="text_9">
     <!-- % of processed -->
     <g transform="translate(20.206562 181.351827) rotate(-90) scale(0.1 -0.1)">
      <defs>
       <path id="DejaVuSans-25" d="M 4653 2053 
Q 4381 2053 4226 1822 
Q 4072 1591 4072 1178 
Q 4072 772 4226 539 
Q 4381 306 4653 306 
Q 4919 306 5073 539 
Q 5228 772 5228 1178 
Q 5228 1588 5073 1820 
Q 4919 2053 4653 2053 
z
M 4653 2450 
Q 5147 2450 5437 2106 
Q 5728 1763 5728 1178 
Q 5728 594 5436 251 
Q 5144 -91 4653 -91 
Q 4153 -91 3862 251 
Q 3572 594 3572 1178 
Q 3572 1766 3864 2108 
Q 4156 2450 4653 2450 
z
M 1428 4353 
Q 1159 4353 1004 4120 
Q 850 3888 850 3481 
Q 850 3069 1003 2837 
Q 1156 2606 1428 2606 
Q 1700 2606 1854 2837 
Q 2009 3069 2009 3481 
Q 2009 3884 1853 4118 
Q 1697 4353 1428 4353 
z
M 4250 4750 
L 4750 4750 
L 1831 -91 
L 1331 -91 
L 4250 4750 
z
M 1428 4750 
Q 1922 4750 2215 4408 
Q 2509 4066 2509 3481 
Q 2509 2891 2217 2550 
Q 1925 2209 1428 2209 
Q 931 2209 642 2551 
Q 353 2894 353 3481 
Q 353 4063 643 4406 
Q 934 4750 1428 4750 
z
" transform="scale(0.015625)"/>
       <path id="DejaVuSans-20" transform="scale(0.015625)"/>
       <path id="DejaVuSans-6f" d="M 1959 3097 
Q 1497 3097 1228 2736 
Q 959 2375 959 1747 
Q 959 1119 1226 758 
Q 1494 397 1959 397 
Q 2419 397 2687 759 
Q 2956 1122 2956 1747 
Q 2956 2369 2687 2733 
Q 2419 3097 1959 3097 
z
M 1959 3584 
Q 2709 3584 3137 3096 
Q 3566 2609 3566 1747 
Q 3566 888 3137 398 
Q 2709 -91 1959 -91 
Q 1206 -91 779 398 
Q 353 888 353 1747 
Q 353 2609 779 3096 
Q 1206 3584 1959 3584 
z
" transform="scale(0.015625)"/>
       <path id="DejaVuSans-66" d="M 2375 4863 
L 2375 4384 
L 1825 4384 
Q 1516 4384 1395 4259 
Q 1275 4134 1275 3809 
L 1275 3500 
L 2222 3500 
L 2222 3053 
L 1275 3053 
L 1275 0 
L 697 0 
L 697 3053 
L 147 3053 
L 147 3500 
L 697 3500 
L 697 3744 
Q 697 4328 969 4595 
Q 1241 4863 1831 4863 
L 2375 4863 
z
" transform="scale(0.015625)"/>
       <path id="DejaVuSans-70" d="M 1159 525 
L 1159 -1331 
L 581 -1331 
L 581 3500 
L 1159 3500 
L 1159 2969 
Q 1341 3281 1617 3432 
Q 1894 3584 2278 3584 
Q 2916 3584 3314 3078 
Q 3713 2572 3713 1747 
Q 3713 922 3314 415 
Q 2916 -91 2278 -91 
Q 1894 -91 1617 61 
Q 1341 213 1159 525 
z
M 3116 1747 
Q 3116 2381 2855 2742 
Q 2594 3103 2138 3103 
Q 1681 3103 1420 2742 
Q 1159 2381 1159 1747 
Q 1159 1113 1420 752 
Q 1681 391 2138 391 
Q 2594 391 2855 752 
Q 3116 1113 3116 1747 
z
" transform="scale(0.015625)"/>
       <path id="DejaVuSans-72" d="M 2631 2963 
Q 2534 3019 2420 3045 
Q 2306 3072 2169 3072 
Q 1681 3072 1420 2755 
Q 1159 2438 1159 1844 
L 1159 0 
L 581 0 
L 581 3500 
L 1159 3500 
L 1159 2956 
Q 1341 3275 1631 3429 
Q 1922 3584 2338 3584 
Q 2397 3584 2469 3576 
Q 2541 3569 2628 3553 
L 2631 2963 
z
" transform="scale(0.015625)"/>
       <path id="DejaVuSans-63" d="M 3122 3366 
L 3122 2828 
Q 2878 2963 2633 3030 
Q 2388 3097 2138 3097 
Q 1578 3097 1268 2742 
Q 959 2388 959 1747 
Q 959 1106 1268 751 
Q 1578 397 2138 397 
Q 2388 397 2633 464 
Q 2878 531 3122 666 
L 3122 134 
Q 2881 22 2623 -34 
Q 2366 -91 2075 -91 
Q 1284 -91 818 406 
Q 353 903 353 1747 
Q 353 2603 823 3093 
Q 1294 3584 2113 3584 
Q 2378 3584 2631 3529 
Q 2884 3475 3122 3366 
z
" transform="scale(0.015625)"/>
       <path id="DejaVuSans-65" d="M 3597 1894 
L 3597 1613 
L 953 1613 
Q 991 1019 1311 708 
Q 1631 397 2203 397 
Q 2534 397 2845 478 
Q 3156 559 3463 722 
L 3463 178 
Q 3153 47 2828 -22 
Q 2503 -91 2169 -91 
Q 1331 -91 842 396 
Q 353 884 353 1716 
Q 353 2575 817 3079 
Q 1281 3584 2069 3584 
Q 2775 3584 3186 3129 
Q 3597 2675 3597 1894 
z
M 3022 2063 
Q 3016 2534 2758 2815 
Q 2500 3097 2075 3097 
Q 1594 3097 1305 2825 
Q 1016 2553 972 2059 
L 3022 2063 
z
" transform="scale(0.015625)"/>
       <path id="DejaVuSans-73" d="M 2834 3397 
L 2834 2853 
Q 2591 2978 2328 3040 
Q 2066 3103 1784 3103 
Q 1356 3103 1142 2972 
Q 928 2841 928 2578 
Q 928 2378 1081 2264 
Q 1234 2150 1697 2047 
L 1894 2003 
Q 2506 1872 2764 1633 
Q 3022 1394 3022 966 
Q 3022 478 2636 193 
Q 2250 -91 1575 -91 
Q 1294 -91 989 -36 
Q 684 19 347 128 
L 347 722 
Q 666 556 975 473 
Q 1284 391 1588 391 
Q 1994 391 2212 530 
Q 2431 669 2431 922 
Q 2431 1156 2273 1281 
Q 2116 1406 1581 1522 
L 1381 1569 
Q 847 1681 609 1914 
Q 372 2147 372 2553 
Q 372 3047 722 3315 
Q 1072 3584 1716 3584 
Q 2034 3584 2315 3537 
Q 2597 3491 2834 3397 
z
" transform="scale(0.015625)"/>
       <path id="DejaVuSans-64" d="M 2906 2969 
L 2906 4863 
L 3481 4863 
L 3481 0 
L 2906 0 
L 2906 525 
Q 2725 213 2448 61 
Q 2172 -91 1784 -91 
Q 1150 -91 751 415 
Q 353 922 353 1747 
Q 353 2572 751 3078 
Q 1150 3584 1784 3584 
Q 2172 3584 2448 3432 
Q 2725 3281 2906 2969 
z
M 947 1747 
Q 947 1113 1208 752 
Q 1469 391 1925 391 
Q 2381 391 2643 752 
Q 2906 1113 2906 1747 
Q 2906 2381 2643 2742 
Q 2381 3103 1925 3103 
Q 1469 3103 1208 2742 
Q 947 2381 947 1747 
z
" transform="scale(0.015625)"/>
      </defs>
      <use xlink:href="#DejaVuSans-25"/>
      <use xlink:href="#DejaVuSans-20" x="95.019531"/>
      <use xlink:href="#DejaVuSans-6f" x="126.806641"/>
      <use xlink:href="#DejaVuSans-66" x="187.988281"/>
      <use xlink:href="#DejaVuSans-20" x="223.193359"/>
      <use xlink:href="#DejaVuSans-70" x="254.980469"/>
      <use xlink:href="#DejaVuSans-72" x="318.457031"/>
      <use xlink:href="#DejaVuSans-6f" x="357.320312"/>
      <use xlink:href="#DejaVuSans-63" x="418.501953"/>
      <use xlink:href="#DejaVuSans-65" x="473.482422"/>
      <use xlink:href="#DejaVuSans-73" x="535.005859"/>
      <use xlink:href="#DejaVuSans-73" x="587.105469"/>
      <use xlink:href="#DejaVuSans-65" x="639.205078"/>
      <use xlink:href="#DejaVuSans-64" x="700.728516"/>
     </g>
     <!-- articles -->
     <g transform="translate(31.404375 161.42917) rotate(-90) scale(0.1 -0.1)">
      <defs>
       <path id="DejaVuSans-61" d="M 2194 1759 
Q 1497 1759 1228 1600 
Q 959 1441 959 1056 
Q 959 750 1161 570 
Q 1363 391 1709 391 
Q 2188 391 2477 730 
Q 2766 1069 2766 1631 
L 2766 1759 
L 2194 1759 
z
M 3341 1997 
L 3341 0 
L 2766 0 
L 2766 531 
Q 2569 213 2275 61 
Q 1981 -91 1556 -91 
Q 1019 -91 701 211 
Q 384 513 384 1019 
Q 384 1609 779 1909 
Q 1175 2209 1959 2209 
L 2766 2209 
L 2766 2266 
Q 2766 2663 2505 2880 
Q 2244 3097 1772 3097 
Q 1472 3097 1187 3025 
Q 903 2953 641 2809 
L 641 3341 
Q 956 3463 1253 3523 
Q 1550 3584 1831 3584 
Q 2591 3584 2966 3190 
Q 3341 2797 3341 1997 
z
" transform="scale(0.015625)"/>
       <path id="DejaVuSans-74" d="M 1172 4494 
L 1172 3500 
L 2356 3500 
L 2356 3053 
L 1172 3053 
L 1172 1153 
Q 1172 725 1289 603 
Q 1406 481 1766 481 
L 2356 481 
L 2356 0 
L 1766 0 
Q 1100 0 847 248 
Q 594 497 594 1153 
L 594 3053 
L 172 3053 
L 172 3500 
L 594 3500 
L 594 4494 
L 1172 4494 
z
" transform="scale(0.015625)"/>
       <path id="DejaVuSans-69" d="M 603 3500 
L 1178 3500 
L 1178 0 
L 603 0 
L 603 3500 
z
M 603 4863 
L 1178 4863 
L 1178 4134 
L 603 4134 
L 603 4863 
z
" transform="scale(0.015625)"/>
       <path id="DejaVuSans-6c" d="M 603 4863 
L 1178 4863 
L 1178 0 
L 603 0 
L 603 4863 
z
" transform="scale(0.015625)"/>
      </defs>
      <use xlink:href="#DejaVuSans-61"/>
      <use xlink:href="#DejaVuSans-72" x="61.279297"/>
      <use xlink:href="#DejaVuSans-74" x="102.392578"/>
      <use xlink:href="#DejaVuSans-69" x="141.601562"/>
      <use xlink:href="#DejaVuSans-63" x="169.384766"/>
      <use xlink:href="#DejaVuSans-6c" x="224.365234"/>
      <use xlink:href="#DejaVuSans-65" x="252.148438"/>
      <use xlink:href="#DejaVuSans-73" x="313.671875"/>
     </g>
    </g>
   </g>
   <g id="line2d_25">
    <path d="M 58.001719 220.855977 
L 66.556481 220.855977 
L 75.111244 220.855977 
L 83.666007 220.855977 
L 92.220769 220.855977 
L 100.775532 220.855977 
L 109.330294 220.855977 
L 117.885057 220.855977 
L 126.43982 220.855977 
L 134.994582 220.855977 
L 143.549345 220.855977 
L 152.104107 220.855977 
L 160.65887 220.855977 
L 169.213633 220.855977 
L 177.768395 220.855977 
L 186.323158 220.855977 
L 194.877921 220.855977 
L 203.432683 220.855977 
L 211.987446 220.855977 
L 220.542208 171.702376 
L 229.096971 220.855977 
L 237.651734 141.425336 
L 246.206496 220.855977 
L 254.761259 152.771005 
L 263.316021 220.855977 
L 271.870784 169.75114 
L 280.425547 193.242703 
L 288.980309 155.347074 
L 297.535072 220.855977 
L 306.089834 203.031768 
L 314.644597 203.283894 
L 323.19936 189.669092 
L 331.754122 190.940683 
L 340.308885 220.855977 
L 348.863648 220.855977 
L 357.41841 205.311863 
L 365.973173 167.295653 
L 374.527935 181.041999 
L 383.082698 192.782299 
L 391.637461 197.704236 
L 400.192223 165.158063 
L 408.746986 173.708422 
L 417.301748 161.0802 
L 425.856511 149.668759 
L 434.411274 183.267284 
L 442.966036 121.200449 
L 451.520799 170.57329 
L 460.075561 160.817112 
L 468.630324 116.530638 
L 477.185087 157.966992 
L 485.739849 162.647765 
L 494.294612 170.858302 
L 502.849375 172.458754 
L 511.404137 203.941613 
L 519.9589 109.328605 
L 528.513662 142.894244 
L 537.068425 103.716062 
L 545.623188 77.779974 
L 554.17795 118.481874 
L 562.732713 74.699652 
L 571.287475 65.425801 
L 579.842238 98.158329 
L 588.397001 158.262966 
L 596.951763 153.527383 
L 605.506526 163.524725 
L 614.061288 153.428725 
L 622.616051 182.960348 
L 631.170814 188.759246 
L 639.725576 161.924273 
L 648.280339 191.225695 
L 656.835102 159.786684 
L 665.389864 145.744364 
L 673.944627 173.03974 
L 682.499389 171.866806 
L 691.054152 204.829535 
L 699.608915 206.188823 
L 708.163677 205.980545 
L 716.71844 206.725961 
" clip-path="url(#pc414a48edc)" style="fill: none; stroke: #d8a3a3; stroke-opacity: 0.9; stroke-width: 1.2; stroke-linecap: square"/>
   </g>
   <g id="line2d_26">
    <path d="M 58.001719 220.855977 
L 66.556481 220.855977 
L 75.111244 220.855977 
L 83.666007 220.855977 
L 92.220769 220.855977 
L 100.775532 220.855977 
L 109.330294 220.855977 
L 117.885057 220.855977 
L 126.43982 220.855977 
L 134.994582 220.855977 
L 143.549345 220.855977 
L 152.104107 220.855977 
L 160.65887 220.855977 
L 169.213633 220.855977 
L 177.768395 220.855977 
L 186.323158 220.855977 
L 194.877921 220.855977 
L 203.432683 211.025257 
L 211.987446 211.025257 
L 220.542208 195.139129 
L 229.096971 195.139129 
L 237.651734 181.522134 
L 246.206496 191.352854 
L 254.761259 181.131887 
L 263.316021 191.49536 
L 271.870784 178.39358 
L 280.425547 192.010574 
L 288.980309 188.445732 
L 297.535072 195.152283 
L 306.089834 194.437561 
L 314.644597 201.556283 
L 323.19936 201.556283 
L 331.754122 205.121124 
L 340.308885 205.526718 
L 348.863648 201.052031 
L 357.41841 199.072294 
L 365.973173 193.457558 
L 374.527935 188.82721 
L 383.082698 180.79645 
L 391.637461 182.079004 
L 400.192223 178.086644 
L 408.746986 169.463936 
L 417.301748 166.576546 
L 425.856511 157.785023 
L 434.411274 157.157997 
L 442.966036 157.105379 
L 451.520799 150.477755 
L 460.075561 145.417696 
L 468.630324 153.707159 
L 477.185087 153.764162 
L 485.739849 156.09249 
L 494.294612 173.574685 
L 502.849375 163.847008 
L 511.404137 159.896304 
L 519.9589 146.467856 
L 528.513662 127.5321 
L 537.068425 110.440152 
L 545.623188 103.514361 
L 554.17795 88.020672 
L 562.732713 86.909126 
L 571.287475 103.005724 
L 579.842238 110.014826 
L 588.397001 127.779841 
L 596.951763 145.380425 
L 605.506526 162.340829 
L 614.061288 168.440085 
L 622.616051 170.119464 
L 631.170814 175.659658 
L 639.725576 176.931249 
L 648.280339 169.488052 
L 656.835102 166.344151 
L 665.389864 168.332658 
L 673.944627 171.053426 
L 682.499389 180.333854 
L 691.054152 192.38109 
L 699.608915 199.118334 
L 708.163677 205.931216 
L 716.71844 206.298443 
" clip-path="url(#pc414a48edc)" style="fill: none; stroke: #9e2a2b; stroke-width: 2.8; stroke-linecap: square"/>
   </g>
   <g id="patch_3">
    <path d="M 58.001719 228.627486 
L 58.001719 57.654293 
" style="fill: none; stroke: #000000; stroke-width: 0.8; stroke-linejoin: miter; stroke-linecap: square"/>
   </g>
   <g id="patch_4">
    <path d="M 58.001719 228.627486 
L 733.827965 228.627486 
" style="fill: none; stroke: #000000; stroke-width: 0.8; stroke-linejoin: miter; stroke-linecap: square"/>
   </g>
   <g id="PathCollection_1">
    <defs>
     <path id="mbf866939f7" d="M 0 2.44949 
C 0.649612 2.44949 1.272706 2.191396 1.732051 1.732051 
C 2.191396 1.272706 2.44949 0.649612 2.44949 0 
C 2.44949 -0.649612 2.191396 -1.272706 1.732051 -1.732051 
C 1.272706 -2.191396 0.649612 -2.44949 0 -2.44949 
C -0.649612 -2.44949 -1.272706 -2.191396 -1.732051 -1.732051 
C -2.191396 -1.272706 -2.44949 -0.649612 -2.44949 0 
C -2.44949 0.649612 -2.191396 1.272706 -1.732051 1.732051 
C -1.272706 2.191396 -0.649612 2.44949 0 2.44949 
z
" style="stroke: #9e2a2b"/>
    </defs>
    <g clip-path="url(#pc414a48edc)">
     <use xlink:href="#mbf866939f7" x="562.732713" y="86.909126" style="fill: #9e2a2b; stroke: #9e2a2b"/>
    </g>
   </g>
   <g id="text_10">
    <!-- Peak 2006: 1.22% -->
    <g style="fill: #9e2a2b" transform="translate(566.154618 85.037407) scale(0.09 -0.09)">
     <defs>
      <path id="DejaVuSans-50" d="M 1259 4147 
L 1259 2394 
L 2053 2394 
Q 2494 2394 2734 2622 
Q 2975 2850 2975 3272 
Q 2975 3691 2734 3919 
Q 2494 4147 2053 4147 
L 1259 4147 
z
M 628 4666 
L 2053 4666 
Q 2838 4666 3239 4311 
Q 3641 3956 3641 3272 
Q 3641 2581 3239 2228 
Q 2838 1875 2053 1875 
L 1259 1875 
L 1259 0 
L 628 0 
L 628 4666 
z
" transform="scale(0.015625)"/>
      <path id="DejaVuSans-6b" d="M 581 4863 
L 1159 4863 
L 1159 1991 
L 2875 3500 
L 3609 3500 
L 1753 1863 
L 3688 0 
L 2938 0 
L 1159 1709 
L 1159 0 
L 581 0 
L 581 4863 
z
" transform="scale(0.015625)"/>
      <path id="DejaVuSans-3a" d="M 750 794 
L 1409 794 
L 1409 0 
L 750 0 
L 750 794 
z
M 750 3309 
L 1409 3309 
L 1409 2516 
L 750 2516 
L 750 3309 
z
" transform="scale(0.015625)"/>
     </defs>
     <use xlink:href="#DejaVuSans-50"/>
     <use xlink:href="#DejaVuSans-65" x="56.677734"/>
     <use xlink:href="#DejaVuSans-61" x="118.201172"/>
     <use xlink:href="#DejaVuSans-6b" x="179.480469"/>
     <use xlink:href="#DejaVuSans-20" x="237.390625"/>
     <use xlink:href="#DejaVuSans-32" x="269.177734"/>
     <use xlink:href="#DejaVuSans-30" x="332.800781"/>
     <use xlink:href="#DejaVuSans-30" x="396.423828"/>
     <use xlink:href="#DejaVuSans-36" x="460.046875"/>
     <use xlink:href="#DejaVuSans-3a" x="523.669922"/>
     <use xlink:href="#DejaVuSans-20" x="557.361328"/>
     <use xlink:href="#DejaVuSans-31" x="589.148438"/>
     <use xlink:href="#DejaVuSans-2e" x="652.771484"/>
     <use xlink:href="#DejaVuSans-32" x="684.558594"/>
     <use xlink:href="#DejaVuSans-32" x="748.181641"/>
     <use xlink:href="#DejaVuSans-25" x="811.804688"/>
    </g>
   </g>
   <g id="text_11">
    <!-- 2024: 0.13% -->
    <g style="fill: #9e2a2b" transform="translate(719.284869 208.781881) scale(0.09 -0.09)">
     <defs>
      <path id="DejaVuSans-33" d="M 2597 2516 
Q 3050 2419 3304 2112 
Q 3559 1806 3559 1356 
Q 3559 666 3084 287 
Q 2609 -91 1734 -91 
Q 1441 -91 1130 -33 
Q 819 25 488 141 
L 488 750 
Q 750 597 1062 519 
Q 1375 441 1716 441 
Q 2309 441 2620 675 
Q 2931 909 2931 1356 
Q 2931 1769 2642 2001 
Q 2353 2234 1838 2234 
L 1294 2234 
L 1294 2753 
L 1863 2753 
Q 2328 2753 2575 2939 
Q 2822 3125 2822 3475 
Q 2822 3834 2567 4026 
Q 2313 4219 1838 4219 
Q 1578 4219 1281 4162 
Q 984 4106 628 3988 
L 628 4550 
Q 988 4650 1302 4700 
Q 1616 4750 1894 4750 
Q 2613 4750 3031 4423 
Q 3450 4097 3450 3541 
Q 3450 3153 3228 2886 
Q 3006 2619 2597 2516 
z
" transform="scale(0.015625)"/>
     </defs>
     <use xlink:href="#DejaVuSans-32"/>
     <use xlink:href="#DejaVuSans-30" x="63.623047"/>
     <use xlink:href="#DejaVuSans-32" x="127.246094"/>
     <use xlink:href="#DejaVuSans-34" x="190.869141"/>
     <use xlink:href="#DejaVuSans-3a" x="254.492188"/>
     <use xlink:href="#DejaVuSans-20" x="288.183594"/>
     <use xlink:href="#DejaVuSans-30" x="319.970703"/>
     <use xlink:href="#DejaVuSans-2e" x="383.59375"/>
     <use xlink:href="#DejaVuSans-31" x="415.380859"/>
     <use xlink:href="#DejaVuSans-33" x="479.003906"/>
     <use xlink:href="#DejaVuSans-25" x="542.626953"/>
    </g>
   </g>
   <g id="text_12">
    <!-- Caucasian -->
    <g transform="translate(58.001719 51.654292) scale(0.12 -0.12)">
     <defs>
      <path id="DejaVuSans-Bold-43" d="M 4288 256 
Q 3956 84 3597 -3 
Q 3238 -91 2847 -91 
Q 1681 -91 1000 561 
Q 319 1213 319 2328 
Q 319 3447 1000 4098 
Q 1681 4750 2847 4750 
Q 3238 4750 3597 4662 
Q 3956 4575 4288 4403 
L 4288 3438 
Q 3953 3666 3628 3772 
Q 3303 3878 2944 3878 
Q 2300 3878 1931 3465 
Q 1563 3053 1563 2328 
Q 1563 1606 1931 1193 
Q 2300 781 2944 781 
Q 3303 781 3628 887 
Q 3953 994 4288 1222 
L 4288 256 
z
" transform="scale(0.015625)"/>
      <path id="DejaVuSans-Bold-61" d="M 2106 1575 
Q 1756 1575 1579 1456 
Q 1403 1338 1403 1106 
Q 1403 894 1545 773 
Q 1688 653 1941 653 
Q 2256 653 2472 879 
Q 2688 1106 2688 1447 
L 2688 1575 
L 2106 1575 
z
M 3816 1997 
L 3816 0 
L 2688 0 
L 2688 519 
Q 2463 200 2181 54 
Q 1900 -91 1497 -91 
Q 953 -91 614 226 
Q 275 544 275 1050 
Q 275 1666 698 1953 
Q 1122 2241 2028 2241 
L 2688 2241 
L 2688 2328 
Q 2688 2594 2478 2717 
Q 2269 2841 1825 2841 
Q 1466 2841 1156 2769 
Q 847 2697 581 2553 
L 581 3406 
Q 941 3494 1303 3539 
Q 1666 3584 2028 3584 
Q 2975 3584 3395 3211 
Q 3816 2838 3816 1997 
z
" transform="scale(0.015625)"/>
      <path id="DejaVuSans-Bold-75" d="M 500 1363 
L 500 3500 
L 1625 3500 
L 1625 3150 
Q 1625 2866 1622 2436 
Q 1619 2006 1619 1863 
Q 1619 1441 1641 1255 
Q 1663 1069 1716 984 
Q 1784 875 1895 815 
Q 2006 756 2150 756 
Q 2500 756 2700 1025 
Q 2900 1294 2900 1772 
L 2900 3500 
L 4019 3500 
L 4019 0 
L 2900 0 
L 2900 506 
Q 2647 200 2364 54 
Q 2081 -91 1741 -91 
Q 1134 -91 817 281 
Q 500 653 500 1363 
z
" transform="scale(0.015625)"/>
      <path id="DejaVuSans-Bold-63" d="M 3366 3391 
L 3366 2478 
Q 3138 2634 2908 2709 
Q 2678 2784 2431 2784 
Q 1963 2784 1702 2511 
Q 1441 2238 1441 1747 
Q 1441 1256 1702 982 
Q 1963 709 2431 709 
Q 2694 709 2930 787 
Q 3166 866 3366 1019 
L 3366 103 
Q 3103 6 2833 -42 
Q 2563 -91 2291 -91 
Q 1344 -91 809 395 
Q 275 881 275 1747 
Q 275 2613 809 3098 
Q 1344 3584 2291 3584 
Q 2566 3584 2833 3536 
Q 3100 3488 3366 3391 
z
" transform="scale(0.015625)"/>
      <path id="DejaVuSans-Bold-73" d="M 3272 3391 
L 3272 2541 
Q 2913 2691 2578 2766 
Q 2244 2841 1947 2841 
Q 1628 2841 1473 2761 
Q 1319 2681 1319 2516 
Q 1319 2381 1436 2309 
Q 1553 2238 1856 2203 
L 2053 2175 
Q 2913 2066 3209 1816 
Q 3506 1566 3506 1031 
Q 3506 472 3093 190 
Q 2681 -91 1863 -91 
Q 1516 -91 1145 -36 
Q 775 19 384 128 
L 384 978 
Q 719 816 1070 734 
Q 1422 653 1784 653 
Q 2113 653 2278 743 
Q 2444 834 2444 1013 
Q 2444 1163 2330 1236 
Q 2216 1309 1875 1350 
L 1678 1375 
Q 931 1469 631 1722 
Q 331 1975 331 2491 
Q 331 3047 712 3315 
Q 1094 3584 1881 3584 
Q 2191 3584 2531 3537 
Q 2872 3491 3272 3391 
z
" transform="scale(0.015625)"/>
      <path id="DejaVuSans-Bold-69" d="M 538 3500 
L 1656 3500 
L 1656 0 
L 538 0 
L 538 3500 
z
M 538 4863 
L 1656 4863 
L 1656 3950 
L 538 3950 
L 538 4863 
z
" transform="scale(0.015625)"/>
      <path id="DejaVuSans-Bold-6e" d="M 4056 2131 
L 4056 0 
L 2931 0 
L 2931 347 
L 2931 1631 
Q 2931 2084 2911 2256 
Q 2891 2428 2841 2509 
Q 2775 2619 2662 2680 
Q 2550 2741 2406 2741 
Q 2056 2741 1856 2470 
Q 1656 2200 1656 1722 
L 1656 0 
L 538 0 
L 538 3500 
L 1656 3500 
L 1656 2988 
Q 1909 3294 2193 3439 
Q 2478 3584 2822 3584 
Q 3428 3584 3742 3212 
Q 4056 2841 4056 2131 
z
" transform="scale(0.015625)"/>
     </defs>
     <use xlink:href="#DejaVuSans-Bold-43"/>
     <use xlink:href="#DejaVuSans-Bold-61" x="73.388672"/>
     <use xlink:href="#DejaVuSans-Bold-75" x="140.869141"/>
     <use xlink:href="#DejaVuSans-Bold-63" x="212.060547"/>
     <use xlink:href="#DejaVuSans-Bold-61" x="271.337891"/>
     <use xlink:href="#DejaVuSans-Bold-73" x="338.818359"/>
     <use xlink:href="#DejaVuSans-Bold-69" x="398.339844"/>
     <use xlink:href="#DejaVuSans-Bold-61" x="432.617188"/>
     <use xlink:href="#DejaVuSans-Bold-6e" x="500.097656"/>
    </g>
   </g>
  </g>
  <g id="axes_2">
   <g id="patch_5">
    <path d="M 58.001719 424.219284 
L 733.827965 424.219284 
L 733.827965 253.246091 
L 58.001719 253.246091 
z
" style="fill: #ffffff"/>
   </g>
   <g id="matplotlib.axis_3">
    <g id="xtick_9">
     <g id="line2d_27">
      <g>
       <use xlink:href="#m942043d973" x="83.666007" y="424.219284" style="stroke: #000000; stroke-width: 0.8"/>
      </g>
     </g>
    </g>
    <g id="xtick_10">
     <g id="line2d_28">
      <g>
       <use xlink:href="#m942043d973" x="169.213633" y="424.219284" style="stroke: #000000; stroke-width: 0.8"/>
      </g>
     </g>
    </g>
    <g id="xtick_11">
     <g id="line2d_29">
      <g>
       <use xlink:href="#m942043d973" x="254.761259" y="424.219284" style="stroke: #000000; stroke-width: 0.8"/>
      </g>
     </g>
    </g>
    <g id="xtick_12">
     <g id="line2d_30">
      <g>
       <use xlink:href="#m942043d973" x="340.308885" y="424.219284" style="stroke: #000000; stroke-width: 0.8"/>
      </g>
     </g>
    </g>
    <g id="xtick_13">
     <g id="line2d_31">
      <g>
       <use xlink:href="#m942043d973" x="425.856511" y="424.219284" style="stroke: #000000; stroke-width: 0.8"/>
      </g>
     </g>
    </g>
    <g id="xtick_14">
     <g id="line2d_32">
      <g>
       <use xlink:href="#m942043d973" x="511.404137" y="424.219284" style="stroke: #000000; stroke-width: 0.8"/>
      </g>
     </g>
    </g>
    <g id="xtick_15">
     <g id="line2d_33">
      <g>
       <use xlink:href="#m942043d973" x="596.951763" y="424.219284" style="stroke: #000000; stroke-width: 0.8"/>
      </g>
     </g>
    </g>
    <g id="xtick_16">
     <g id="line2d_34">
      <g>
       <use xlink:href="#m942043d973" x="682.499389" y="424.219284" style="stroke: #000000; stroke-width: 0.8"/>
      </g>
     </g>
    </g>
   </g>
   <g id="matplotlib.axis_4">
    <g id="ytick_9">
     <g id="line2d_35">
      <path d="M 58.001719 416.447775 
L 733.827965 416.447775 
" clip-path="url(#p13113610a8)" style="fill: none; stroke: #dddddd; stroke-width: 0.8; stroke-linecap: square"/>
     </g>
     <g id="line2d_36">
      <g>
       <use xlink:href="#m8d2aa5da3c" x="58.001719" y="416.447775" style="stroke: #000000; stroke-width: 0.8"/>
      </g>
     </g>
     <g id="text_13">
      <!-- 0.0 -->
      <g transform="translate(37.484063 419.677111) scale(0.085 -0.085)">
       <use xlink:href="#DejaVuSans-30"/>
       <use xlink:href="#DejaVuSans-2e" x="63.623047"/>
       <use xlink:href="#DejaVuSans-30" x="95.410156"/>
      </g>
     </g>
    </g>
    <g id="ytick_10">
     <g id="line2d_37">
      <path d="M 58.001719 395.581864 
L 733.827965 395.581864 
" clip-path="url(#p13113610a8)" style="fill: none; stroke: #dddddd; stroke-width: 0.8; stroke-linecap: square"/>
     </g>
     <g id="line2d_38">
      <g>
       <use xlink:href="#m8d2aa5da3c" x="58.001719" y="395.581864" style="stroke: #000000; stroke-width: 0.8"/>
      </g>
     </g>
     <g id="text_14">
      <!-- 0.1 -->
      <g transform="translate(37.484063 398.8112) scale(0.085 -0.085)">
       <use xlink:href="#DejaVuSans-30"/>
       <use xlink:href="#DejaVuSans-2e" x="63.623047"/>
       <use xlink:href="#DejaVuSans-31" x="95.410156"/>
      </g>
     </g>
    </g>
    <g id="ytick_11">
     <g id="line2d_39">
      <path d="M 58.001719 374.715952 
L 733.827965 374.715952 
" clip-path="url(#p13113610a8)" style="fill: none; stroke: #dddddd; stroke-width: 0.8; stroke-linecap: square"/>
     </g>
     <g id="line2d_40">
      <g>
       <use xlink:href="#m8d2aa5da3c" x="58.001719" y="374.715952" style="stroke: #000000; stroke-width: 0.8"/>
      </g>
     </g>
     <g id="text_15">
      <!-- 0.2 -->
      <g transform="translate(37.484063 377.945288) scale(0.085 -0.085)">
       <use xlink:href="#DejaVuSans-30"/>
       <use xlink:href="#DejaVuSans-2e" x="63.623047"/>
       <use xlink:href="#DejaVuSans-32" x="95.410156"/>
      </g>
     </g>
    </g>
    <g id="ytick_12">
     <g id="line2d_41">
      <path d="M 58.001719 353.85004 
L 733.827965 353.85004 
" clip-path="url(#p13113610a8)" style="fill: none; stroke: #dddddd; stroke-width: 0.8; stroke-linecap: square"/>
     </g>
     <g id="line2d_42">
      <g>
       <use xlink:href="#m8d2aa5da3c" x="58.001719" y="353.85004" style="stroke: #000000; stroke-width: 0.8"/>
      </g>
     </g>
     <g id="text_16">
      <!-- 0.3 -->
      <g transform="translate(37.484063 357.079376) scale(0.085 -0.085)">
       <use xlink:href="#DejaVuSans-30"/>
       <use xlink:href="#DejaVuSans-2e" x="63.623047"/>
       <use xlink:href="#DejaVuSans-33" x="95.410156"/>
      </g>
     </g>
    </g>
    <g id="ytick_13">
     <g id="line2d_43">
      <path d="M 58.001719 332.984129 
L 733.827965 332.984129 
" clip-path="url(#p13113610a8)" style="fill: none; stroke: #dddddd; stroke-width: 0.8; stroke-linecap: square"/>
     </g>
     <g id="line2d_44">
      <g>
       <use xlink:href="#m8d2aa5da3c" x="58.001719" y="332.984129" style="stroke: #000000; stroke-width: 0.8"/>
      </g>
     </g>
     <g id="text_17">
      <!-- 0.4 -->
      <g transform="translate(37.484063 336.213465) scale(0.085 -0.085)">
       <use xlink:href="#DejaVuSans-30"/>
       <use xlink:href="#DejaVuSans-2e" x="63.623047"/>
       <use xlink:href="#DejaVuSans-34" x="95.410156"/>
      </g>
     </g>
    </g>
    <g id="ytick_14">
     <g id="line2d_45">
      <path d="M 58.001719 312.118217 
L 733.827965 312.118217 
" clip-path="url(#p13113610a8)" style="fill: none; stroke: #dddddd; stroke-width: 0.8; stroke-linecap: square"/>
     </g>
     <g id="line2d_46">
      <g>
       <use xlink:href="#m8d2aa5da3c" x="58.001719" y="312.118217" style="stroke: #000000; stroke-width: 0.8"/>
      </g>
     </g>
     <g id="text_18">
      <!-- 0.5 -->
      <g transform="translate(37.484063 315.347553) scale(0.085 -0.085)">
       <defs>
        <path id="DejaVuSans-35" d="M 691 4666 
L 3169 4666 
L 3169 4134 
L 1269 4134 
L 1269 2991 
Q 1406 3038 1543 3061 
Q 1681 3084 1819 3084 
Q 2600 3084 3056 2656 
Q 3513 2228 3513 1497 
Q 3513 744 3044 326 
Q 2575 -91 1722 -91 
Q 1428 -91 1123 -41 
Q 819 9 494 109 
L 494 744 
Q 775 591 1075 516 
Q 1375 441 1709 441 
Q 2250 441 2565 725 
Q 2881 1009 2881 1497 
Q 2881 1984 2565 2268 
Q 2250 2553 1709 2553 
Q 1456 2553 1204 2497 
Q 953 2441 691 2322 
L 691 4666 
z
" transform="scale(0.015625)"/>
       </defs>
       <use xlink:href="#DejaVuSans-30"/>
       <use xlink:href="#DejaVuSans-2e" x="63.623047"/>
       <use xlink:href="#DejaVuSans-35" x="95.410156"/>
      </g>
     </g>
    </g>
    <g id="ytick_15">
     <g id="line2d_47">
      <path d="M 58.001719 291.252306 
L 733.827965 291.252306 
" clip-path="url(#p13113610a8)" style="fill: none; stroke: #dddddd; stroke-width: 0.8; stroke-linecap: square"/>
     </g>
     <g id="line2d_48">
      <g>
       <use xlink:href="#m8d2aa5da3c" x="58.001719" y="291.252306" style="stroke: #000000; stroke-width: 0.8"/>
      </g>
     </g>
     <g id="text_19">
      <!-- 0.6 -->
      <g transform="translate(37.484063 294.481642) scale(0.085 -0.085)">
       <use xlink:href="#DejaVuSans-30"/>
       <use xlink:href="#DejaVuSans-2e" x="63.623047"/>
       <use xlink:href="#DejaVuSans-36" x="95.410156"/>
      </g>
     </g>
    </g>
    <g id="ytick_16">
     <g id="line2d_49">
      <path d="M 58.001719 270.386394 
L 733.827965 270.386394 
" clip-path="url(#p13113610a8)" style="fill: none; stroke: #dddddd; stroke-width: 0.8; stroke-linecap: square"/>
     </g>
     <g id="line2d_50">
      <g>
       <use xlink:href="#m8d2aa5da3c" x="58.001719" y="270.386394" style="stroke: #000000; stroke-width: 0.8"/>
      </g>
     </g>
     <g id="text_20">
      <!-- 0.7 -->
      <g transform="translate(37.484063 273.61573) scale(0.085 -0.085)">
       <defs>
        <path id="DejaVuSans-37" d="M 525 4666 
L 3525 4666 
L 3525 4397 
L 1831 0 
L 1172 0 
L 2766 4134 
L 525 4134 
L 525 4666 
z
" transform="scale(0.015625)"/>
       </defs>
       <use xlink:href="#DejaVuSans-30"/>
       <use xlink:href="#DejaVuSans-2e" x="63.623047"/>
       <use xlink:href="#DejaVuSans-37" x="95.410156"/>
      </g>
     </g>
    </g>
    <g id="text_21">
     <!-- % of processed -->
     <g transform="translate(20.206562 376.943625) rotate(-90) scale(0.1 -0.1)">
      <use xlink:href="#DejaVuSans-25"/>
      <use xlink:href="#DejaVuSans-20" x="95.019531"/>
      <use xlink:href="#DejaVuSans-6f" x="126.806641"/>
      <use xlink:href="#DejaVuSans-66" x="187.988281"/>
      <use xlink:href="#DejaVuSans-20" x="223.193359"/>
      <use xlink:href="#DejaVuSans-70" x="254.980469"/>
      <use xlink:href="#DejaVuSans-72" x="318.457031"/>
      <use xlink:href="#DejaVuSans-6f" x="357.320312"/>
      <use xlink:href="#DejaVuSans-63" x="418.501953"/>
      <use xlink:href="#DejaVuSans-65" x="473.482422"/>
      <use xlink:href="#DejaVuSans-73" x="535.005859"/>
      <use xlink:href="#DejaVuSans-73" x="587.105469"/>
      <use xlink:href="#DejaVuSans-65" x="639.205078"/>
      <use xlink:href="#DejaVuSans-64" x="700.728516"/>
     </g>
     <!-- articles -->
     <g transform="translate(31.404375 357.020969) rotate(-90) scale(0.1 -0.1)">
      <use xlink:href="#DejaVuSans-61"/>
      <use xlink:href="#DejaVuSans-72" x="61.279297"/>
      <use xlink:href="#DejaVuSans-74" x="102.392578"/>
      <use xlink:href="#DejaVuSans-69" x="141.601562"/>
      <use xlink:href="#DejaVuSans-63" x="169.384766"/>
      <use xlink:href="#DejaVuSans-6c" x="224.365234"/>
      <use xlink:href="#DejaVuSans-65" x="252.148438"/>
      <use xlink:href="#DejaVuSans-73" x="313.671875"/>
     </g>
    </g>
   </g>
   <g id="line2d_51">
    <path d="M 58.001719 416.447775 
L 66.556481 416.447775 
L 75.111244 416.447775 
L 83.666007 416.447775 
L 92.220769 416.447775 
L 100.775532 416.447775 
L 109.330294 416.447775 
L 117.885057 416.447775 
L 126.43982 416.447775 
L 134.994582 416.447775 
L 143.549345 416.447775 
L 152.104107 416.447775 
L 160.65887 416.447775 
L 169.213633 416.447775 
L 177.768395 416.447775 
L 186.323158 416.447775 
L 194.877921 416.447775 
L 203.432683 416.447775 
L 211.987446 416.447775 
L 220.542208 416.447775 
L 229.096971 416.447775 
L 237.651734 416.447775 
L 246.206496 416.447775 
L 254.761259 416.447775 
L 263.316021 416.447775 
L 271.870784 416.447775 
L 280.425547 416.447775 
L 288.980309 374.882879 
L 297.535072 416.447775 
L 306.089834 416.447775 
L 314.644597 349.572529 
L 323.19936 357.084257 
L 331.754122 416.447775 
L 340.308885 318.02327 
L 348.863648 388.800442 
L 357.41841 416.447775 
L 365.973173 416.447775 
L 374.527935 365.931403 
L 383.082698 309.572576 
L 391.637461 394.413373 
L 400.192223 374.027377 
L 408.746986 371.565199 
L 417.301748 348.174513 
L 425.856511 416.447775 
L 434.411274 392.598038 
L 442.966036 381.956423 
L 451.520799 336.677395 
L 460.075561 367.475481 
L 468.630324 355.352386 
L 477.185087 380.537541 
L 485.739849 379.515112 
L 494.294612 390.490581 
L 502.849375 361.173975 
L 511.404137 392.305916 
L 519.9589 386.129606 
L 528.513662 376.865141 
L 537.068425 366.098331 
L 545.623188 320.31852 
L 554.17795 371.481736 
L 562.732713 382.728462 
L 571.287475 342.478119 
L 579.842238 343.959598 
L 588.397001 384.668992 
L 596.951763 408.915181 
L 605.506526 314.601261 
L 614.061288 312.159949 
L 622.616051 373.171875 
L 631.170814 329.186533 
L 639.725576 360.360205 
L 648.280339 335.884491 
L 656.835102 358.315346 
L 665.389864 382.811926 
L 673.944627 333.004995 
L 682.499389 261.0176 
L 691.054152 263.917961 
L 699.608915 297.804202 
L 708.163677 284.262225 
L 716.71844 299.932525 
" clip-path="url(#p13113610a8)" style="fill: none; stroke: #a8d1de; stroke-opacity: 0.9; stroke-width: 1.2; stroke-linecap: square"/>
   </g>
   <g id="line2d_52">
    <path d="M 58.001719 416.447775 
L 66.556481 416.447775 
L 75.111244 416.447775 
L 83.666007 416.447775 
L 92.220769 416.447775 
L 100.775532 416.447775 
L 109.330294 416.447775 
L 117.885057 416.447775 
L 126.43982 416.447775 
L 134.994582 416.447775 
L 143.549345 416.447775 
L 152.104107 416.447775 
L 160.65887 416.447775 
L 169.213633 416.447775 
L 177.768395 416.447775 
L 186.323158 416.447775 
L 194.877921 416.447775 
L 203.432683 416.447775 
L 211.987446 416.447775 
L 220.542208 416.447775 
L 229.096971 416.447775 
L 237.651734 416.447775 
L 246.206496 416.447775 
L 254.761259 416.447775 
L 263.316021 416.447775 
L 271.870784 408.134796 
L 280.425547 408.134796 
L 288.980309 408.134796 
L 297.535072 394.759747 
L 306.089834 382.887043 
L 314.644597 391.200022 
L 323.19936 371.515121 
L 331.754122 365.985655 
L 340.308885 379.360704 
L 348.863648 391.233408 
L 357.41841 381.130133 
L 365.973173 379.439995 
L 374.527935 380.562581 
L 383.082698 372.078501 
L 391.637461 363.101986 
L 400.192223 359.550608 
L 408.746986 380.925647 
L 417.301748 380.562581 
L 425.856511 382.14839 
L 434.411274 375.170829 
L 442.966036 379.031023 
L 451.520799 366.811945 
L 460.075561 364.399845 
L 468.630324 363.911583 
L 477.185087 374.67422 
L 485.739849 373.413919 
L 494.294612 380.804625 
L 502.849375 381.923038 
L 511.404137 381.393044 
L 519.9589 376.514594 
L 528.513662 368.343503 
L 537.068425 364.178667 
L 545.623188 363.498438 
L 554.17795 356.621034 
L 562.732713 352.193287 
L 571.287475 365.063381 
L 579.842238 372.55007 
L 588.397001 358.92463 
L 596.951763 352.860996 
L 605.506526 358.703452 
L 614.061288 347.60696 
L 622.616051 337.895964 
L 631.170814 342.15261 
L 639.725576 351.38369 
L 648.280339 353.3117 
L 656.835102 354.075392 
L 665.389864 334.206871 
L 673.944627 319.813565 
L 682.499389 307.711337 
L 691.054152 288.001397 
L 699.608915 281.386903 
L 708.163677 286.479228 
L 716.71844 293.999651 
" clip-path="url(#p13113610a8)" style="fill: none; stroke: #1d6f8a; stroke-width: 2.8; stroke-linecap: square"/>
   </g>
   <g id="patch_6">
    <path d="M 58.001719 424.219284 
L 58.001719 253.246091 
" style="fill: none; stroke: #000000; stroke-width: 0.8; stroke-linejoin: miter; stroke-linecap: square"/>
   </g>
   <g id="patch_7">
    <path d="M 58.001719 424.219284 
L 733.827965 424.219284 
" style="fill: none; stroke: #000000; stroke-width: 0.8; stroke-linejoin: miter; stroke-linecap: square"/>
   </g>
   <g id="PathCollection_2">
    <defs>
     <path id="m800280f9f0" d="M 0 2.44949 
C 0.649612 2.44949 1.272706 2.191396 1.732051 1.732051 
C 2.191396 1.272706 2.44949 0.649612 2.44949 0 
C 2.44949 -0.649612 2.191396 -1.272706 1.732051 -1.732051 
C 1.272706 -2.191396 0.649612 -2.44949 0 -2.44949 
C -0.649612 -2.44949 -1.272706 -2.191396 -1.732051 -1.732051 
C -2.191396 -1.272706 -2.44949 -0.649612 -2.44949 0 
C -2.44949 0.649612 -2.191396 1.272706 -1.732051 1.732051 
C -1.272706 2.191396 -0.649612 2.44949 0 2.44949 
z
" style="stroke: #1d6f8a"/>
    </defs>
    <g clip-path="url(#p13113610a8)">
     <use xlink:href="#m800280f9f0" x="699.608915" y="281.386903" style="fill: #1d6f8a; stroke: #1d6f8a"/>
    </g>
   </g>
   <g id="text_22">
    <!-- Peak 2022: 0.65% -->
    <g style="fill: #1d6f8a" transform="translate(703.03082 279.515184) scale(0.09 -0.09)">
     <use xlink:href="#DejaVuSans-50"/>
     <use xlink:href="#DejaVuSans-65" x="56.677734"/>
     <use xlink:href="#DejaVuSans-61" x="118.201172"/>
     <use xlink:href="#DejaVuSans-6b" x="179.480469"/>
     <use xlink:href="#DejaVuSans-20" x="237.390625"/>
     <use xlink:href="#DejaVuSans-32" x="269.177734"/>
     <use xlink:href="#DejaVuSans-30" x="332.800781"/>
     <use xlink:href="#DejaVuSans-32" x="396.423828"/>
     <use xlink:href="#DejaVuSans-32" x="460.046875"/>
     <use xlink:href="#DejaVuSans-3a" x="523.669922"/>
     <use xlink:href="#DejaVuSans-20" x="557.361328"/>
     <use xlink:href="#DejaVuSans-30" x="589.148438"/>
     <use xlink:href="#DejaVuSans-2e" x="652.771484"/>
     <use xlink:href="#DejaVuSans-36" x="684.558594"/>
     <use xlink:href="#DejaVuSans-35" x="748.181641"/>
     <use xlink:href="#DejaVuSans-25" x="811.804688"/>
    </g>
   </g>
   <g id="text_23">
    <!-- 2024: 0.59% -->
    <g style="fill: #1d6f8a" transform="translate(719.284869 296.483088) scale(0.09 -0.09)">
     <defs>
      <path id="DejaVuSans-39" d="M 703 97 
L 703 672 
Q 941 559 1184 500 
Q 1428 441 1663 441 
Q 2288 441 2617 861 
Q 2947 1281 2994 2138 
Q 2813 1869 2534 1725 
Q 2256 1581 1919 1581 
Q 1219 1581 811 2004 
Q 403 2428 403 3163 
Q 403 3881 828 4315 
Q 1253 4750 1959 4750 
Q 2769 4750 3195 4129 
Q 3622 3509 3622 2328 
Q 3622 1225 3098 567 
Q 2575 -91 1691 -91 
Q 1453 -91 1209 -44 
Q 966 3 703 97 
z
M 1959 2075 
Q 2384 2075 2632 2365 
Q 2881 2656 2881 3163 
Q 2881 3666 2632 3958 
Q 2384 4250 1959 4250 
Q 1534 4250 1286 3958 
Q 1038 3666 1038 3163 
Q 1038 2656 1286 2365 
Q 1534 2075 1959 2075 
z
" transform="scale(0.015625)"/>
     </defs>
     <use xlink:href="#DejaVuSans-32"/>
     <use xlink:href="#DejaVuSans-30" x="63.623047"/>
     <use xlink:href="#DejaVuSans-32" x="127.246094"/>
     <use xlink:href="#DejaVuSans-34" x="190.869141"/>
     <use xlink:href="#DejaVuSans-3a" x="254.492188"/>
     <use xlink:href="#DejaVuSans-20" x="288.183594"/>
     <use xlink:href="#DejaVuSans-30" x="319.970703"/>
     <use xlink:href="#DejaVuSans-2e" x="383.59375"/>
     <use xlink:href="#DejaVuSans-35" x="415.380859"/>
     <use xlink:href="#DejaVuSans-39" x="479.003906"/>
     <use xlink:href="#DejaVuSans-25" x="542.626953"/>
    </g>
   </g>
   <g id="text_24">
    <!-- White -->
    <g transform="translate(58.001719 247.246091) scale(0.12 -0.12)">
     <defs>
      <path id="DejaVuSans-Bold-57" d="M 191 4666 
L 1344 4666 
L 2150 1275 
L 2950 4666 
L 4109 4666 
L 4909 1275 
L 5716 4666 
L 6859 4666 
L 5759 0 
L 4372 0 
L 3525 3547 
L 2688 0 
L 1300 0 
L 191 4666 
z
" transform="scale(0.015625)"/>
      <path id="DejaVuSans-Bold-68" d="M 4056 2131 
L 4056 0 
L 2931 0 
L 2931 347 
L 2931 1625 
Q 2931 2084 2911 2256 
Q 2891 2428 2841 2509 
Q 2775 2619 2662 2680 
Q 2550 2741 2406 2741 
Q 2056 2741 1856 2470 
Q 1656 2200 1656 1722 
L 1656 0 
L 538 0 
L 538 4863 
L 1656 4863 
L 1656 2988 
Q 1909 3294 2193 3439 
Q 2478 3584 2822 3584 
Q 3428 3584 3742 3212 
Q 4056 2841 4056 2131 
z
" transform="scale(0.015625)"/>
      <path id="DejaVuSans-Bold-74" d="M 1759 4494 
L 1759 3500 
L 2913 3500 
L 2913 2700 
L 1759 2700 
L 1759 1216 
Q 1759 972 1856 886 
Q 1953 800 2241 800 
L 2816 800 
L 2816 0 
L 1856 0 
Q 1194 0 917 276 
Q 641 553 641 1216 
L 641 2700 
L 84 2700 
L 84 3500 
L 641 3500 
L 641 4494 
L 1759 4494 
z
" transform="scale(0.015625)"/>
      <path id="DejaVuSans-Bold-65" d="M 4031 1759 
L 4031 1441 
L 1416 1441 
Q 1456 1047 1700 850 
Q 1944 653 2381 653 
Q 2734 653 3104 758 
Q 3475 863 3866 1075 
L 3866 213 
Q 3469 63 3072 -14 
Q 2675 -91 2278 -91 
Q 1328 -91 801 392 
Q 275 875 275 1747 
Q 275 2603 792 3093 
Q 1309 3584 2216 3584 
Q 3041 3584 3536 3087 
Q 4031 2591 4031 1759 
z
M 2881 2131 
Q 2881 2450 2695 2645 
Q 2509 2841 2209 2841 
Q 1884 2841 1681 2658 
Q 1478 2475 1428 2131 
L 2881 2131 
z
" transform="scale(0.015625)"/>
     </defs>
     <use xlink:href="#DejaVuSans-Bold-57"/>
     <use xlink:href="#DejaVuSans-Bold-68" x="110.302734"/>
     <use xlink:href="#DejaVuSans-Bold-69" x="181.494141"/>
     <use xlink:href="#DejaVuSans-Bold-74" x="215.771484"/>
     <use xlink:href="#DejaVuSans-Bold-65" x="263.574219"/>
    </g>
   </g>
  </g>
  <g id="axes_3">
   <g id="patch_8">
    <path d="M 58.001719 619.811082 
L 733.827965 619.811082 
L 733.827965 448.837889 
L 58.001719 448.837889 
z
" style="fill: #ffffff"/>
   </g>
   <g id="matplotlib.axis_5">
    <g id="xtick_17">
     <g id="line2d_53">
      <g>
       <use xlink:href="#m942043d973" x="83.666007" y="619.811082" style="stroke: #000000; stroke-width: 0.8"/>
      </g>
     </g>
     <g id="text_25">
      <!-- 1950 -->
      <g transform="translate(72.213507 633.649676) scale(0.09 -0.09)">
       <use xlink:href="#DejaVuSans-31"/>
       <use xlink:href="#DejaVuSans-39" x="63.623047"/>
       <use xlink:href="#DejaVuSans-35" x="127.246094"/>
       <use xlink:href="#DejaVuSans-30" x="190.869141"/>
      </g>
     </g>
    </g>
    <g id="xtick_18">
     <g id="line2d_54">
      <g>
       <use xlink:href="#m942043d973" x="169.213633" y="619.811082" style="stroke: #000000; stroke-width: 0.8"/>
      </g>
     </g>
     <g id="text_26">
      <!-- 1960 -->
      <g transform="translate(157.761133 633.649676) scale(0.09 -0.09)">
       <use xlink:href="#DejaVuSans-31"/>
       <use xlink:href="#DejaVuSans-39" x="63.623047"/>
       <use xlink:href="#DejaVuSans-36" x="127.246094"/>
       <use xlink:href="#DejaVuSans-30" x="190.869141"/>
      </g>
     </g>
    </g>
    <g id="xtick_19">
     <g id="line2d_55">
      <g>
       <use xlink:href="#m942043d973" x="254.761259" y="619.811082" style="stroke: #000000; stroke-width: 0.8"/>
      </g>
     </g>
     <g id="text_27">
      <!-- 1970 -->
      <g transform="translate(243.308759 633.649676) scale(0.09 -0.09)">
       <use xlink:href="#DejaVuSans-31"/>
       <use xlink:href="#DejaVuSans-39" x="63.623047"/>
       <use xlink:href="#DejaVuSans-37" x="127.246094"/>
       <use xlink:href="#DejaVuSans-30" x="190.869141"/>
      </g>
     </g>
    </g>
    <g id="xtick_20">
     <g id="line2d_56">
      <g>
       <use xlink:href="#m942043d973" x="340.308885" y="619.811082" style="stroke: #000000; stroke-width: 0.8"/>
      </g>
     </g>
     <g id="text_28">
      <!-- 1980 -->
      <g transform="translate(328.856385 633.649676) scale(0.09 -0.09)">
       <use xlink:href="#DejaVuSans-31"/>
       <use xlink:href="#DejaVuSans-39" x="63.623047"/>
       <use xlink:href="#DejaVuSans-38" x="127.246094"/>
       <use xlink:href="#DejaVuSans-30" x="190.869141"/>
      </g>
     </g>
    </g>
    <g id="xtick_21">
     <g id="line2d_57">
      <g>
       <use xlink:href="#m942043d973" x="425.856511" y="619.811082" style="stroke: #000000; stroke-width: 0.8"/>
      </g>
     </g>
     <g id="text_29">
      <!-- 1990 -->
      <g transform="translate(414.404011 633.649676) scale(0.09 -0.09)">
       <use xlink:href="#DejaVuSans-31"/>
       <use xlink:href="#DejaVuSans-39" x="63.623047"/>
       <use xlink:href="#DejaVuSans-39" x="127.246094"/>
       <use xlink:href="#DejaVuSans-30" x="190.869141"/>
      </g>
     </g>
    </g>
    <g id="xtick_22">
     <g id="line2d_58">
      <g>
       <use xlink:href="#m942043d973" x="511.404137" y="619.811082" style="stroke: #000000; stroke-width: 0.8"/>
      </g>
     </g>
     <g id="text_30">
      <!-- 2000 -->
      <g transform="translate(499.951637 633.649676) scale(0.09 -0.09)">
       <use xlink:href="#DejaVuSans-32"/>
       <use xlink:href="#DejaVuSans-30" x="63.623047"/>
       <use xlink:href="#DejaVuSans-30" x="127.246094"/>
       <use xlink:href="#DejaVuSans-30" x="190.869141"/>
      </g>
     </g>
    </g>
    <g id="xtick_23">
     <g id="line2d_59">
      <g>
       <use xlink:href="#m942043d973" x="596.951763" y="619.811082" style="stroke: #000000; stroke-width: 0.8"/>
      </g>
     </g>
     <g id="text_31">
      <!-- 2010 -->
      <g transform="translate(585.499263 633.649676) scale(0.09 -0.09)">
       <use xlink:href="#DejaVuSans-32"/>
       <use xlink:href="#DejaVuSans-30" x="63.623047"/>
       <use xlink:href="#DejaVuSans-31" x="127.246094"/>
       <use xlink:href="#DejaVuSans-30" x="190.869141"/>
      </g>
     </g>
    </g>
    <g id="xtick_24">
     <g id="line2d_60">
      <g>
       <use xlink:href="#m942043d973" x="682.499389" y="619.811082" style="stroke: #000000; stroke-width: 0.8"/>
      </g>
     </g>
     <g id="text_32">
      <!-- 2020 -->
      <g transform="translate(671.046889 633.649676) scale(0.09 -0.09)">
       <use xlink:href="#DejaVuSans-32"/>
       <use xlink:href="#DejaVuSans-30" x="63.623047"/>
       <use xlink:href="#DejaVuSans-32" x="127.246094"/>
       <use xlink:href="#DejaVuSans-30" x="190.869141"/>
      </g>
     </g>
    </g>
    <g id="text_33">
     <!-- Publication year -->
     <g transform="translate(355.731248 647.119832) scale(0.1 -0.1)">
      <defs>
       <path id="DejaVuSans-75" d="M 544 1381 
L 544 3500 
L 1119 3500 
L 1119 1403 
Q 1119 906 1312 657 
Q 1506 409 1894 409 
Q 2359 409 2629 706 
Q 2900 1003 2900 1516 
L 2900 3500 
L 3475 3500 
L 3475 0 
L 2900 0 
L 2900 538 
Q 2691 219 2414 64 
Q 2138 -91 1772 -91 
Q 1169 -91 856 284 
Q 544 659 544 1381 
z
M 1991 3584 
L 1991 3584 
z
" transform="scale(0.015625)"/>
       <path id="DejaVuSans-62" d="M 3116 1747 
Q 3116 2381 2855 2742 
Q 2594 3103 2138 3103 
Q 1681 3103 1420 2742 
Q 1159 2381 1159 1747 
Q 1159 1113 1420 752 
Q 1681 391 2138 391 
Q 2594 391 2855 752 
Q 3116 1113 3116 1747 
z
M 1159 2969 
Q 1341 3281 1617 3432 
Q 1894 3584 2278 3584 
Q 2916 3584 3314 3078 
Q 3713 2572 3713 1747 
Q 3713 922 3314 415 
Q 2916 -91 2278 -91 
Q 1894 -91 1617 61 
Q 1341 213 1159 525 
L 1159 0 
L 581 0 
L 581 4863 
L 1159 4863 
L 1159 2969 
z
" transform="scale(0.015625)"/>
       <path id="DejaVuSans-6e" d="M 3513 2113 
L 3513 0 
L 2938 0 
L 2938 2094 
Q 2938 2591 2744 2837 
Q 2550 3084 2163 3084 
Q 1697 3084 1428 2787 
Q 1159 2491 1159 1978 
L 1159 0 
L 581 0 
L 581 3500 
L 1159 3500 
L 1159 2956 
Q 1366 3272 1645 3428 
Q 1925 3584 2291 3584 
Q 2894 3584 3203 3211 
Q 3513 2838 3513 2113 
z
" transform="scale(0.015625)"/>
       <path id="DejaVuSans-79" d="M 2059 -325 
Q 1816 -950 1584 -1140 
Q 1353 -1331 966 -1331 
L 506 -1331 
L 506 -850 
L 844 -850 
Q 1081 -850 1212 -737 
Q 1344 -625 1503 -206 
L 1606 56 
L 191 3500 
L 800 3500 
L 1894 763 
L 2988 3500 
L 3597 3500 
L 2059 -325 
z
" transform="scale(0.015625)"/>
      </defs>
      <use xlink:href="#DejaVuSans-50"/>
      <use xlink:href="#DejaVuSans-75" x="58.552734"/>
      <use xlink:href="#DejaVuSans-62" x="121.931641"/>
      <use xlink:href="#DejaVuSans-6c" x="185.408203"/>
      <use xlink:href="#DejaVuSans-69" x="213.191406"/>
      <use xlink:href="#DejaVuSans-63" x="240.974609"/>
      <use xlink:href="#DejaVuSans-61" x="295.955078"/>
      <use xlink:href="#DejaVuSans-74" x="357.234375"/>
      <use xlink:href="#DejaVuSans-69" x="396.443359"/>
      <use xlink:href="#DejaVuSans-6f" x="424.226562"/>
      <use xlink:href="#DejaVuSans-6e" x="485.408203"/>
      <use xlink:href="#DejaVuSans-20" x="548.787109"/>
      <use xlink:href="#DejaVuSans-79" x="580.574219"/>
      <use xlink:href="#DejaVuSans-65" x="639.753906"/>
      <use xlink:href="#DejaVuSans-61" x="701.277344"/>
      <use xlink:href="#DejaVuSans-72" x="762.556641"/>
     </g>
    </g>
   </g>
   <g id="matplotlib.axis_6">
    <g id="ytick_17">
     <g id="line2d_61">
      <path d="M 58.001719 612.039574 
L 733.827965 612.039574 
" clip-path="url(#pe4d25fa3c3)" style="fill: none; stroke: #dddddd; stroke-width: 0.8; stroke-linecap: square"/>
     </g>
     <g id="line2d_62">
      <g>
       <use xlink:href="#m8d2aa5da3c" x="58.001719" y="612.039574" style="stroke: #000000; stroke-width: 0.8"/>
      </g>
     </g>
     <g id="text_34">
      <!-- 0.00 -->
      <g transform="translate(32.075938 615.26891) scale(0.085 -0.085)">
       <use xlink:href="#DejaVuSans-30"/>
       <use xlink:href="#DejaVuSans-2e" x="63.623047"/>
       <use xlink:href="#DejaVuSans-30" x="95.410156"/>
       <use xlink:href="#DejaVuSans-30" x="159.033203"/>
      </g>
     </g>
    </g>
    <g id="ytick_18">
     <g id="line2d_63">
      <path d="M 58.001719 590.776896 
L 733.827965 590.776896 
" clip-path="url(#pe4d25fa3c3)" style="fill: none; stroke: #dddddd; stroke-width: 0.8; stroke-linecap: square"/>
     </g>
     <g id="line2d_64">
      <g>
       <use xlink:href="#m8d2aa5da3c" x="58.001719" y="590.776896" style="stroke: #000000; stroke-width: 0.8"/>
      </g>
     </g>
     <g id="text_35">
      <!-- 0.25 -->
      <g transform="translate(32.075938 594.006232) scale(0.085 -0.085)">
       <use xlink:href="#DejaVuSans-30"/>
       <use xlink:href="#DejaVuSans-2e" x="63.623047"/>
       <use xlink:href="#DejaVuSans-32" x="95.410156"/>
       <use xlink:href="#DejaVuSans-35" x="159.033203"/>
      </g>
     </g>
    </g>
    <g id="ytick_19">
     <g id="line2d_65">
      <path d="M 58.001719 569.514218 
L 733.827965 569.514218 
" clip-path="url(#pe4d25fa3c3)" style="fill: none; stroke: #dddddd; stroke-width: 0.8; stroke-linecap: square"/>
     </g>
     <g id="line2d_66">
      <g>
       <use xlink:href="#m8d2aa5da3c" x="58.001719" y="569.514218" style="stroke: #000000; stroke-width: 0.8"/>
      </g>
     </g>
     <g id="text_36">
      <!-- 0.50 -->
      <g transform="translate(32.075938 572.743554) scale(0.085 -0.085)">
       <use xlink:href="#DejaVuSans-30"/>
       <use xlink:href="#DejaVuSans-2e" x="63.623047"/>
       <use xlink:href="#DejaVuSans-35" x="95.410156"/>
       <use xlink:href="#DejaVuSans-30" x="159.033203"/>
      </g>
     </g>
    </g>
    <g id="ytick_20">
     <g id="line2d_67">
      <path d="M 58.001719 548.25154 
L 733.827965 548.25154 
" clip-path="url(#pe4d25fa3c3)" style="fill: none; stroke: #dddddd; stroke-width: 0.8; stroke-linecap: square"/>
     </g>
     <g id="line2d_68">
      <g>
       <use xlink:href="#m8d2aa5da3c" x="58.001719" y="548.25154" style="stroke: #000000; stroke-width: 0.8"/>
      </g>
     </g>
     <g id="text_37">
      <!-- 0.75 -->
      <g transform="translate(32.075938 551.480876) scale(0.085 -0.085)">
       <use xlink:href="#DejaVuSans-30"/>
       <use xlink:href="#DejaVuSans-2e" x="63.623047"/>
       <use xlink:href="#DejaVuSans-37" x="95.410156"/>
       <use xlink:href="#DejaVuSans-35" x="159.033203"/>
      </g>
     </g>
    </g>
    <g id="ytick_21">
     <g id="line2d_69">
      <path d="M 58.001719 526.988862 
L 733.827965 526.988862 
" clip-path="url(#pe4d25fa3c3)" style="fill: none; stroke: #dddddd; stroke-width: 0.8; stroke-linecap: square"/>
     </g>
     <g id="line2d_70">
      <g>
       <use xlink:href="#m8d2aa5da3c" x="58.001719" y="526.988862" style="stroke: #000000; stroke-width: 0.8"/>
      </g>
     </g>
     <g id="text_38">
      <!-- 1.00 -->
      <g transform="translate(32.075938 530.218198) scale(0.085 -0.085)">
       <use xlink:href="#DejaVuSans-31"/>
       <use xlink:href="#DejaVuSans-2e" x="63.623047"/>
       <use xlink:href="#DejaVuSans-30" x="95.410156"/>
       <use xlink:href="#DejaVuSans-30" x="159.033203"/>
      </g>
     </g>
    </g>
    <g id="ytick_22">
     <g id="line2d_71">
      <path d="M 58.001719 505.726184 
L 733.827965 505.726184 
" clip-path="url(#pe4d25fa3c3)" style="fill: none; stroke: #dddddd; stroke-width: 0.8; stroke-linecap: square"/>
     </g>
     <g id="line2d_72">
      <g>
       <use xlink:href="#m8d2aa5da3c" x="58.001719" y="505.726184" style="stroke: #000000; stroke-width: 0.8"/>
      </g>
     </g>
     <g id="text_39">
      <!-- 1.25 -->
      <g transform="translate(32.075938 508.95552) scale(0.085 -0.085)">
       <use xlink:href="#DejaVuSans-31"/>
       <use xlink:href="#DejaVuSans-2e" x="63.623047"/>
       <use xlink:href="#DejaVuSans-32" x="95.410156"/>
       <use xlink:href="#DejaVuSans-35" x="159.033203"/>
      </g>
     </g>
    </g>
    <g id="ytick_23">
     <g id="line2d_73">
      <path d="M 58.001719 484.463506 
L 733.827965 484.463506 
" clip-path="url(#pe4d25fa3c3)" style="fill: none; stroke: #dddddd; stroke-width: 0.8; stroke-linecap: square"/>
     </g>
     <g id="line2d_74">
      <g>
       <use xlink:href="#m8d2aa5da3c" x="58.001719" y="484.463506" style="stroke: #000000; stroke-width: 0.8"/>
      </g>
     </g>
     <g id="text_40">
      <!-- 1.50 -->
      <g transform="translate(32.075938 487.692842) scale(0.085 -0.085)">
       <use xlink:href="#DejaVuSans-31"/>
       <use xlink:href="#DejaVuSans-2e" x="63.623047"/>
       <use xlink:href="#DejaVuSans-35" x="95.410156"/>
       <use xlink:href="#DejaVuSans-30" x="159.033203"/>
      </g>
     </g>
    </g>
    <g id="ytick_24">
     <g id="line2d_75">
      <path d="M 58.001719 463.200828 
L 733.827965 463.200828 
" clip-path="url(#pe4d25fa3c3)" style="fill: none; stroke: #dddddd; stroke-width: 0.8; stroke-linecap: square"/>
     </g>
     <g id="line2d_76">
      <g>
       <use xlink:href="#m8d2aa5da3c" x="58.001719" y="463.200828" style="stroke: #000000; stroke-width: 0.8"/>
      </g>
     </g>
     <g id="text_41">
      <!-- 1.75 -->
      <g transform="translate(32.075938 466.430164) scale(0.085 -0.085)">
       <use xlink:href="#DejaVuSans-31"/>
       <use xlink:href="#DejaVuSans-2e" x="63.623047"/>
       <use xlink:href="#DejaVuSans-37" x="95.410156"/>
       <use xlink:href="#DejaVuSans-35" x="159.033203"/>
      </g>
     </g>
    </g>
    <g id="text_42">
     <!-- % of processed -->
     <g transform="translate(14.798438 572.535423) rotate(-90) scale(0.1 -0.1)">
      <use xlink:href="#DejaVuSans-25"/>
      <use xlink:href="#DejaVuSans-20" x="95.019531"/>
      <use xlink:href="#DejaVuSans-6f" x="126.806641"/>
      <use xlink:href="#DejaVuSans-66" x="187.988281"/>
      <use xlink:href="#DejaVuSans-20" x="223.193359"/>
      <use xlink:href="#DejaVuSans-70" x="254.980469"/>
      <use xlink:href="#DejaVuSans-72" x="318.457031"/>
      <use xlink:href="#DejaVuSans-6f" x="357.320312"/>
      <use xlink:href="#DejaVuSans-63" x="418.501953"/>
      <use xlink:href="#DejaVuSans-65" x="473.482422"/>
      <use xlink:href="#DejaVuSans-73" x="535.005859"/>
      <use xlink:href="#DejaVuSans-73" x="587.105469"/>
      <use xlink:href="#DejaVuSans-65" x="639.205078"/>
      <use xlink:href="#DejaVuSans-64" x="700.728516"/>
     </g>
     <!-- articles -->
     <g transform="translate(25.99625 552.612767) rotate(-90) scale(0.1 -0.1)">
      <use xlink:href="#DejaVuSans-61"/>
      <use xlink:href="#DejaVuSans-72" x="61.279297"/>
      <use xlink:href="#DejaVuSans-74" x="102.392578"/>
      <use xlink:href="#DejaVuSans-69" x="141.601562"/>
      <use xlink:href="#DejaVuSans-63" x="169.384766"/>
      <use xlink:href="#DejaVuSans-6c" x="224.365234"/>
      <use xlink:href="#DejaVuSans-65" x="252.148438"/>
      <use xlink:href="#DejaVuSans-73" x="313.671875"/>
     </g>
    </g>
   </g>
   <g id="line2d_77">
    <path d="M 58.001719 612.039574 
L 66.556481 612.039574 
L 75.111244 612.039574 
L 83.666007 612.039574 
L 92.220769 612.039574 
L 100.775532 612.039574 
L 109.330294 612.039574 
L 117.885057 612.039574 
L 126.43982 612.039574 
L 134.994582 612.039574 
L 143.549345 612.039574 
L 152.104107 612.039574 
L 160.65887 612.039574 
L 169.213633 612.039574 
L 177.768395 612.039574 
L 186.323158 612.039574 
L 194.877921 612.039574 
L 203.432683 612.039574 
L 211.987446 557.522067 
L 220.542208 573.902835 
L 229.096971 612.039574 
L 237.651734 612.039574 
L 246.206496 585.206074 
L 254.761259 585.622823 
L 263.316021 567.158313 
L 271.870784 572.388932 
L 280.425547 590.615299 
L 288.980309 612.039574 
L 297.535072 499.704594 
L 306.089834 570.551837 
L 314.644597 598.405945 
L 323.19936 612.039574 
L 331.754122 588.829234 
L 340.308885 598.669602 
L 348.863648 612.039574 
L 357.41841 575.850496 
L 365.973173 570.483796 
L 374.527935 570.849514 
L 383.082698 579.371595 
L 391.637461 585.095508 
L 400.192223 603.398421 
L 408.746986 575.459263 
L 417.301748 565.661421 
L 425.856511 584.423608 
L 434.411274 553.720301 
L 442.966036 527.694783 
L 451.520799 573.026812 
L 460.075561 518.866519 
L 468.630324 580.911013 
L 477.185087 577.883208 
L 485.739849 574.404634 
L 494.294612 545.045128 
L 502.849375 551.959751 
L 511.404137 569.403652 
L 519.9589 525.50898 
L 528.513662 535.417387 
L 537.068425 524.088633 
L 545.623188 501.031385 
L 554.17795 505.113819 
L 562.732713 512.385655 
L 571.287475 494.797168 
L 579.842238 493.870115 
L 588.397001 511.671229 
L 596.951763 513.712446 
L 605.506526 531.972834 
L 614.061288 504.135736 
L 622.616051 503.268218 
L 631.170814 523.110549 
L 639.725576 474.861281 
L 648.280339 546.363414 
L 656.835102 503.735997 
L 665.389864 498.913622 
L 673.944627 513.108586 
L 682.499389 507.503744 
L 691.054152 456.609398 
L 699.608915 526.708195 
L 708.163677 473.491964 
L 716.71844 462.24826 
" clip-path="url(#pe4d25fa3c3)" style="fill: none; stroke: #b7d7a8; stroke-opacity: 0.9; stroke-width: 1.2; stroke-linecap: square"/>
   </g>
   <g id="line2d_78">
    <path d="M 58.001719 612.039574 
L 66.556481 612.039574 
L 75.111244 612.039574 
L 83.666007 612.039574 
L 92.220769 612.039574 
L 100.775532 612.039574 
L 109.330294 612.039574 
L 117.885057 612.039574 
L 126.43982 612.039574 
L 134.994582 612.039574 
L 143.549345 612.039574 
L 152.104107 612.039574 
L 160.65887 612.039574 
L 169.213633 612.039574 
L 177.768395 612.039574 
L 186.323158 612.039574 
L 194.877921 601.136072 
L 203.432683 593.508725 
L 211.987446 593.508725 
L 220.542208 593.508725 
L 229.096971 588.142025 
L 237.651734 593.762176 
L 246.206496 592.413271 
L 254.761259 584.483143 
L 263.316021 580.198288 
L 271.870784 585.564988 
L 280.425547 568.381342 
L 288.980309 569.060047 
L 297.535072 574.26345 
L 306.089834 578.548304 
L 314.644597 573.906237 
L 323.19936 593.699238 
L 331.754122 601.996786 
L 340.308885 597.485696 
L 348.863648 589.17454 
L 357.41841 585.578596 
L 365.973173 581.718995 
L 374.527935 576.330182 
L 383.082698 581.839767 
L 391.637461 582.83486 
L 400.192223 581.797242 
L 408.746986 582.807644 
L 417.301748 576.532603 
L 425.856511 561.391875 
L 434.411274 560.905385 
L 442.966036 551.546404 
L 451.520799 550.843886 
L 460.075561 555.676467 
L 468.630324 565.018437 
L 477.185087 559.4221 
L 485.739849 566.040747 
L 494.294612 563.739274 
L 502.849375 553.264429 
L 511.404137 545.46698 
L 519.9589 541.275681 
L 528.513662 531.090007 
L 537.068425 518.232041 
L 545.623188 515.607376 
L 554.17795 507.483332 
L 562.732713 501.439628 
L 571.287475 503.567597 
L 579.842238 505.287322 
L 588.397001 509.204758 
L 596.951763 511.072472 
L 605.506526 512.952092 
L 614.061288 515.239957 
L 622.616051 507.469724 
L 631.170814 510.34784 
L 639.725576 510.267892 
L 648.280339 509.396973 
L 656.835102 507.39658 
L 665.389864 513.925073 
L 673.944627 495.974269 
L 682.499389 500.568709 
L 691.054152 495.484377 
L 699.608915 485.312312 
L 708.163677 479.764454 
L 716.71844 487.482806 
" clip-path="url(#pe4d25fa3c3)" style="fill: none; stroke: #3b7f3b; stroke-width: 2.8; stroke-linecap: square"/>
   </g>
   <g id="patch_9">
    <path d="M 58.001719 619.811082 
L 58.001719 448.837889 
" style="fill: none; stroke: #000000; stroke-width: 0.8; stroke-linejoin: miter; stroke-linecap: square"/>
   </g>
   <g id="patch_10">
    <path d="M 58.001719 619.811082 
L 733.827965 619.811082 
" style="fill: none; stroke: #000000; stroke-width: 0.8; stroke-linejoin: miter; stroke-linecap: square"/>
   </g>
   <g id="PathCollection_3">
    <defs>
     <path id="m7b826e62a1" d="M 0 2.44949 
C 0.649612 2.44949 1.272706 2.191396 1.732051 1.732051 
C 2.191396 1.272706 2.44949 0.649612 2.44949 0 
C 2.44949 -0.649612 2.191396 -1.272706 1.732051 -1.732051 
C 1.272706 -2.191396 0.649612 -2.44949 0 -2.44949 
C -0.649612 -2.44949 -1.272706 -2.191396 -1.732051 -1.732051 
C -2.191396 -1.272706 -2.44949 -0.649612 -2.44949 0 
C -2.44949 0.649612 -2.191396 1.272706 -1.732051 1.732051 
C -1.272706 2.191396 -0.649612 2.44949 0 2.44949 
z
" style="stroke: #3b7f3b"/>
    </defs>
    <g clip-path="url(#pe4d25fa3c3)">
     <use xlink:href="#m7b826e62a1" x="708.163677" y="479.764454" style="fill: #3b7f3b; stroke: #3b7f3b"/>
    </g>
   </g>
   <g id="text_43">
    <!-- Peak 2023: 1.56% -->
    <g style="fill: #3b7f3b" transform="translate(711.585582 477.892735) scale(0.09 -0.09)">
     <use xlink:href="#DejaVuSans-50"/>
     <use xlink:href="#DejaVuSans-65" x="56.677734"/>
     <use xlink:href="#DejaVuSans-61" x="118.201172"/>
     <use xlink:href="#DejaVuSans-6b" x="179.480469"/>
     <use xlink:href="#DejaVuSans-20" x="237.390625"/>
     <use xlink:href="#DejaVuSans-32" x="269.177734"/>
     <use xlink:href="#DejaVuSans-30" x="332.800781"/>
     <use xlink:href="#DejaVuSans-32" x="396.423828"/>
     <use xlink:href="#DejaVuSans-33" x="460.046875"/>
     <use xlink:href="#DejaVuSans-3a" x="523.669922"/>
     <use xlink:href="#DejaVuSans-20" x="557.361328"/>
     <use xlink:href="#DejaVuSans-31" x="589.148438"/>
     <use xlink:href="#DejaVuSans-2e" x="652.771484"/>
     <use xlink:href="#DejaVuSans-35" x="684.558594"/>
     <use xlink:href="#DejaVuSans-36" x="748.181641"/>
     <use xlink:href="#DejaVuSans-25" x="811.804688"/>
    </g>
   </g>
   <g id="text_44">
    <!-- 2024: 1.46% -->
    <g style="fill: #3b7f3b" transform="translate(719.284869 489.966244) scale(0.09 -0.09)">
     <use xlink:href="#DejaVuSans-32"/>
     <use xlink:href="#DejaVuSans-30" x="63.623047"/>
     <use xlink:href="#DejaVuSans-32" x="127.246094"/>
     <use xlink:href="#DejaVuSans-34" x="190.869141"/>
     <use xlink:href="#DejaVuSans-3a" x="254.492188"/>
     <use xlink:href="#DejaVuSans-20" x="288.183594"/>
     <use xlink:href="#DejaVuSans-31" x="319.970703"/>
     <use xlink:href="#DejaVuSans-2e" x="383.59375"/>
     <use xlink:href="#DejaVuSans-34" x="415.380859"/>
     <use xlink:href="#DejaVuSans-36" x="479.003906"/>
     <use xlink:href="#DejaVuSans-25" x="542.626953"/>
    </g>
   </g>
   <g id="text_45">
    <!-- European-Origin -->
    <g transform="translate(58.001719 442.837889) scale(0.12 -0.12)">
     <defs>
      <path id="DejaVuSans-Bold-45" d="M 588 4666 
L 3834 4666 
L 3834 3756 
L 1791 3756 
L 1791 2888 
L 3713 2888 
L 3713 1978 
L 1791 1978 
L 1791 909 
L 3903 909 
L 3903 0 
L 588 0 
L 588 4666 
z
" transform="scale(0.015625)"/>
      <path id="DejaVuSans-Bold-72" d="M 3138 2547 
Q 2991 2616 2845 2648 
Q 2700 2681 2553 2681 
Q 2122 2681 1889 2404 
Q 1656 2128 1656 1613 
L 1656 0 
L 538 0 
L 538 3500 
L 1656 3500 
L 1656 2925 
Q 1872 3269 2151 3426 
Q 2431 3584 2822 3584 
Q 2878 3584 2943 3579 
Q 3009 3575 3134 3559 
L 3138 2547 
z
" transform="scale(0.015625)"/>
      <path id="DejaVuSans-Bold-6f" d="M 2203 2784 
Q 1831 2784 1636 2517 
Q 1441 2250 1441 1747 
Q 1441 1244 1636 976 
Q 1831 709 2203 709 
Q 2569 709 2762 976 
Q 2956 1244 2956 1747 
Q 2956 2250 2762 2517 
Q 2569 2784 2203 2784 
z
M 2203 3584 
Q 3106 3584 3614 3096 
Q 4122 2609 4122 1747 
Q 4122 884 3614 396 
Q 3106 -91 2203 -91 
Q 1297 -91 786 396 
Q 275 884 275 1747 
Q 275 2609 786 3096 
Q 1297 3584 2203 3584 
z
" transform="scale(0.015625)"/>
      <path id="DejaVuSans-Bold-70" d="M 1656 506 
L 1656 -1331 
L 538 -1331 
L 538 3500 
L 1656 3500 
L 1656 2988 
Q 1888 3294 2169 3439 
Q 2450 3584 2816 3584 
Q 3463 3584 3878 3070 
Q 4294 2556 4294 1747 
Q 4294 938 3878 423 
Q 3463 -91 2816 -91 
Q 2450 -91 2169 54 
Q 1888 200 1656 506 
z
M 2400 2772 
Q 2041 2772 1848 2508 
Q 1656 2244 1656 1747 
Q 1656 1250 1848 986 
Q 2041 722 2400 722 
Q 2759 722 2948 984 
Q 3138 1247 3138 1747 
Q 3138 2247 2948 2509 
Q 2759 2772 2400 2772 
z
" transform="scale(0.015625)"/>
      <path id="DejaVuSans-Bold-2d" d="M 347 2297 
L 2309 2297 
L 2309 1388 
L 347 1388 
L 347 2297 
z
" transform="scale(0.015625)"/>
      <path id="DejaVuSans-Bold-4f" d="M 2719 3878 
Q 2169 3878 1866 3472 
Q 1563 3066 1563 2328 
Q 1563 1594 1866 1187 
Q 2169 781 2719 781 
Q 3272 781 3575 1187 
Q 3878 1594 3878 2328 
Q 3878 3066 3575 3472 
Q 3272 3878 2719 3878 
z
M 2719 4750 
Q 3844 4750 4481 4106 
Q 5119 3463 5119 2328 
Q 5119 1197 4481 553 
Q 3844 -91 2719 -91 
Q 1597 -91 958 553 
Q 319 1197 319 2328 
Q 319 3463 958 4106 
Q 1597 4750 2719 4750 
z
" transform="scale(0.015625)"/>
      <path id="DejaVuSans-Bold-67" d="M 2919 594 
Q 2688 288 2409 144 
Q 2131 0 1766 0 
Q 1125 0 706 504 
Q 288 1009 288 1791 
Q 288 2575 706 3076 
Q 1125 3578 1766 3578 
Q 2131 3578 2409 3434 
Q 2688 3291 2919 2981 
L 2919 3500 
L 4044 3500 
L 4044 353 
Q 4044 -491 3511 -936 
Q 2978 -1381 1966 -1381 
Q 1638 -1381 1331 -1331 
Q 1025 -1281 716 -1178 
L 716 -306 
Q 1009 -475 1290 -558 
Q 1572 -641 1856 -641 
Q 2406 -641 2662 -400 
Q 2919 -159 2919 353 
L 2919 594 
z
M 2181 2772 
Q 1834 2772 1640 2515 
Q 1447 2259 1447 1791 
Q 1447 1309 1634 1061 
Q 1822 813 2181 813 
Q 2531 813 2725 1069 
Q 2919 1325 2919 1791 
Q 2919 2259 2725 2515 
Q 2531 2772 2181 2772 
z
" transform="scale(0.015625)"/>
     </defs>
     <use xlink:href="#DejaVuSans-Bold-45"/>
     <use xlink:href="#DejaVuSans-Bold-75" x="68.310547"/>
     <use xlink:href="#DejaVuSans-Bold-72" x="139.501953"/>
     <use xlink:href="#DejaVuSans-Bold-6f" x="188.818359"/>
     <use xlink:href="#DejaVuSans-Bold-70" x="257.519531"/>
     <use xlink:href="#DejaVuSans-Bold-65" x="329.101562"/>
     <use xlink:href="#DejaVuSans-Bold-61" x="396.923828"/>
     <use xlink:href="#DejaVuSans-Bold-6e" x="464.404297"/>
     <use xlink:href="#DejaVuSans-Bold-2d" x="535.595703"/>
     <use xlink:href="#DejaVuSans-Bold-4f" x="577.099609"/>
     <use xlink:href="#DejaVuSans-Bold-72" x="662.109375"/>
     <use xlink:href="#DejaVuSans-Bold-69" x="711.425781"/>
     <use xlink:href="#DejaVuSans-Bold-67" x="745.703125"/>
     <use xlink:href="#DejaVuSans-Bold-69" x="817.285156"/>
     <use xlink:href="#DejaVuSans-Bold-6e" x="851.5625"/>
    </g>
   </g>
  </g>
  <g id="text_46">
   <!-- Article-Level Prevalence of Focal Terms in Titles/Abstracts, 1947-2024 -->
   <g transform="translate(123.733666 17.837812) scale(0.14 -0.14)">
    <defs>
     <path id="DejaVuSans-Bold-41" d="M 3419 850 
L 1538 850 
L 1241 0 
L 31 0 
L 1759 4666 
L 3194 4666 
L 4922 0 
L 3713 0 
L 3419 850 
z
M 1838 1716 
L 3116 1716 
L 2478 3572 
L 1838 1716 
z
" transform="scale(0.015625)"/>
     <path id="DejaVuSans-Bold-6c" d="M 538 4863 
L 1656 4863 
L 1656 0 
L 538 0 
L 538 4863 
z
" transform="scale(0.015625)"/>
     <path id="DejaVuSans-Bold-4c" d="M 588 4666 
L 1791 4666 
L 1791 909 
L 3903 909 
L 3903 0 
L 588 0 
L 588 4666 
z
" transform="scale(0.015625)"/>
     <path id="DejaVuSans-Bold-76" d="M 97 3500 
L 1216 3500 
L 2088 1081 
L 2956 3500 
L 4078 3500 
L 2700 0 
L 1472 0 
L 97 3500 
z
" transform="scale(0.015625)"/>
     <path id="DejaVuSans-Bold-20" transform="scale(0.015625)"/>
     <path id="DejaVuSans-Bold-50" d="M 588 4666 
L 2584 4666 
Q 3475 4666 3951 4270 
Q 4428 3875 4428 3144 
Q 4428 2409 3951 2014 
Q 3475 1619 2584 1619 
L 1791 1619 
L 1791 0 
L 588 0 
L 588 4666 
z
M 1791 3794 
L 1791 2491 
L 2456 2491 
Q 2806 2491 2997 2661 
Q 3188 2831 3188 3144 
Q 3188 3456 2997 3625 
Q 2806 3794 2456 3794 
L 1791 3794 
z
" transform="scale(0.015625)"/>
     <path id="DejaVuSans-Bold-66" d="M 2841 4863 
L 2841 4128 
L 2222 4128 
Q 1984 4128 1890 4042 
Q 1797 3956 1797 3744 
L 1797 3500 
L 2753 3500 
L 2753 2700 
L 1797 2700 
L 1797 0 
L 678 0 
L 678 2700 
L 122 2700 
L 122 3500 
L 678 3500 
L 678 3744 
Q 678 4316 997 4589 
Q 1316 4863 1984 4863 
L 2841 4863 
z
" transform="scale(0.015625)"/>
     <path id="DejaVuSans-Bold-46" d="M 588 4666 
L 3834 4666 
L 3834 3756 
L 1791 3756 
L 1791 2888 
L 3713 2888 
L 3713 1978 
L 1791 1978 
L 1791 0 
L 588 0 
L 588 4666 
z
" transform="scale(0.015625)"/>
     <path id="DejaVuSans-Bold-54" d="M 31 4666 
L 4331 4666 
L 4331 3756 
L 2784 3756 
L 2784 0 
L 1581 0 
L 1581 3756 
L 31 3756 
L 31 4666 
z
" transform="scale(0.015625)"/>
     <path id="DejaVuSans-Bold-6d" d="M 3781 2919 
Q 3994 3244 4286 3414 
Q 4578 3584 4928 3584 
Q 5531 3584 5847 3212 
Q 6163 2841 6163 2131 
L 6163 0 
L 5038 0 
L 5038 1825 
Q 5041 1866 5042 1909 
Q 5044 1953 5044 2034 
Q 5044 2406 4934 2573 
Q 4825 2741 4581 2741 
Q 4263 2741 4089 2478 
Q 3916 2216 3909 1719 
L 3909 0 
L 2784 0 
L 2784 1825 
Q 2784 2406 2684 2573 
Q 2584 2741 2328 2741 
Q 2006 2741 1831 2477 
Q 1656 2213 1656 1722 
L 1656 0 
L 531 0 
L 531 3500 
L 1656 3500 
L 1656 2988 
Q 1863 3284 2130 3434 
Q 2397 3584 2719 3584 
Q 3081 3584 3359 3409 
Q 3638 3234 3781 2919 
z
" transform="scale(0.015625)"/>
     <path id="DejaVuSans-Bold-2f" d="M 1644 4666 
L 2338 4666 
L 691 -594 
L 0 -594 
L 1644 4666 
z
" transform="scale(0.015625)"/>
     <path id="DejaVuSans-Bold-62" d="M 2400 722 
Q 2759 722 2948 984 
Q 3138 1247 3138 1747 
Q 3138 2247 2948 2509 
Q 2759 2772 2400 2772 
Q 2041 2772 1848 2508 
Q 1656 2244 1656 1747 
Q 1656 1250 1848 986 
Q 2041 722 2400 722 
z
M 1656 2988 
Q 1888 3294 2169 3439 
Q 2450 3584 2816 3584 
Q 3463 3584 3878 3070 
Q 4294 2556 4294 1747 
Q 4294 938 3878 423 
Q 3463 -91 2816 -91 
Q 2450 -91 2169 54 
Q 1888 200 1656 506 
L 1656 0 
L 538 0 
L 538 4863 
L 1656 4863 
L 1656 2988 
z
" transform="scale(0.015625)"/>
     <path id="DejaVuSans-Bold-2c" d="M 653 1209 
L 1778 1209 
L 1778 256 
L 1006 -909 
L 341 -909 
L 653 256 
L 653 1209 
z
" transform="scale(0.015625)"/>
     <path id="DejaVuSans-Bold-31" d="M 750 831 
L 1813 831 
L 1813 3847 
L 722 3622 
L 722 4441 
L 1806 4666 
L 2950 4666 
L 2950 831 
L 4013 831 
L 4013 0 
L 750 0 
L 750 831 
z
" transform="scale(0.015625)"/>
     <path id="DejaVuSans-Bold-39" d="M 641 103 
L 641 966 
Q 928 831 1190 764 
Q 1453 697 1709 697 
Q 2247 697 2547 995 
Q 2847 1294 2900 1881 
Q 2688 1725 2447 1647 
Q 2206 1569 1925 1569 
Q 1209 1569 770 1986 
Q 331 2403 331 3084 
Q 331 3838 820 4291 
Q 1309 4744 2131 4744 
Q 3044 4744 3544 4128 
Q 4044 3513 4044 2388 
Q 4044 1231 3459 570 
Q 2875 -91 1856 -91 
Q 1528 -91 1228 -42 
Q 928 6 641 103 
z
M 2125 2350 
Q 2441 2350 2600 2554 
Q 2759 2759 2759 3169 
Q 2759 3575 2600 3781 
Q 2441 3988 2125 3988 
Q 1809 3988 1650 3781 
Q 1491 3575 1491 3169 
Q 1491 2759 1650 2554 
Q 1809 2350 2125 2350 
z
" transform="scale(0.015625)"/>
     <path id="DejaVuSans-Bold-34" d="M 2356 3675 
L 1038 1722 
L 2356 1722 
L 2356 3675 
z
M 2156 4666 
L 3494 4666 
L 3494 1722 
L 4159 1722 
L 4159 850 
L 3494 850 
L 3494 0 
L 2356 0 
L 2356 850 
L 288 850 
L 288 1881 
L 2156 4666 
z
" transform="scale(0.015625)"/>
     <path id="DejaVuSans-Bold-37" d="M 428 4666 
L 3944 4666 
L 3944 3988 
L 2125 0 
L 953 0 
L 2675 3781 
L 428 3781 
L 428 4666 
z
" transform="scale(0.015625)"/>
     <path id="DejaVuSans-Bold-32" d="M 1844 884 
L 3897 884 
L 3897 0 
L 506 0 
L 506 884 
L 2209 2388 
Q 2438 2594 2547 2791 
Q 2656 2988 2656 3200 
Q 2656 3528 2436 3728 
Q 2216 3928 1850 3928 
Q 1569 3928 1234 3808 
Q 900 3688 519 3450 
L 519 4475 
Q 925 4609 1322 4679 
Q 1719 4750 2100 4750 
Q 2938 4750 3402 4381 
Q 3866 4013 3866 3353 
Q 3866 2972 3669 2642 
Q 3472 2313 2841 1759 
L 1844 884 
z
" transform="scale(0.015625)"/>
     <path id="DejaVuSans-Bold-30" d="M 2944 2338 
Q 2944 3213 2780 3570 
Q 2616 3928 2228 3928 
Q 1841 3928 1675 3570 
Q 1509 3213 1509 2338 
Q 1509 1453 1675 1090 
Q 1841 728 2228 728 
Q 2613 728 2778 1090 
Q 2944 1453 2944 2338 
z
M 4147 2328 
Q 4147 1169 3647 539 
Q 3147 -91 2228 -91 
Q 1306 -91 806 539 
Q 306 1169 306 2328 
Q 306 3491 806 4120 
Q 1306 4750 2228 4750 
Q 3147 4750 3647 4120 
Q 4147 3491 4147 2328 
z
" transform="scale(0.015625)"/>
    </defs>
    <use xlink:href="#DejaVuSans-Bold-41"/>
    <use xlink:href="#DejaVuSans-Bold-72" x="77.392578"/>
    <use xlink:href="#DejaVuSans-Bold-74" x="126.708984"/>
    <use xlink:href="#DejaVuSans-Bold-69" x="174.511719"/>
    <use xlink:href="#DejaVuSans-Bold-63" x="208.789062"/>
    <use xlink:href="#DejaVuSans-Bold-6c" x="268.066406"/>
    <use xlink:href="#DejaVuSans-Bold-65" x="302.34375"/>
    <use xlink:href="#DejaVuSans-Bold-2d" x="370.166016"/>
    <use xlink:href="#DejaVuSans-Bold-4c" x="411.669922"/>
    <use xlink:href="#DejaVuSans-Bold-65" x="475.390625"/>
    <use xlink:href="#DejaVuSans-Bold-76" x="543.212891"/>
    <use xlink:href="#DejaVuSans-Bold-65" x="608.398438"/>
    <use xlink:href="#DejaVuSans-Bold-6c" x="676.220703"/>
    <use xlink:href="#DejaVuSans-Bold-20" x="710.498047"/>
    <use xlink:href="#DejaVuSans-Bold-50" x="745.3125"/>
    <use xlink:href="#DejaVuSans-Bold-72" x="818.603516"/>
    <use xlink:href="#DejaVuSans-Bold-65" x="867.919922"/>
    <use xlink:href="#DejaVuSans-Bold-76" x="935.742188"/>
    <use xlink:href="#DejaVuSans-Bold-61" x="1000.927734"/>
    <use xlink:href="#DejaVuSans-Bold-6c" x="1068.408203"/>
    <use xlink:href="#DejaVuSans-Bold-65" x="1102.685547"/>
    <use xlink:href="#DejaVuSans-Bold-6e" x="1170.507812"/>
    <use xlink:href="#DejaVuSans-Bold-63" x="1241.699219"/>
    <use xlink:href="#DejaVuSans-Bold-65" x="1300.976562"/>
    <use xlink:href="#DejaVuSans-Bold-20" x="1368.798828"/>
    <use xlink:href="#DejaVuSans-Bold-6f" x="1403.613281"/>
    <use xlink:href="#DejaVuSans-Bold-66" x="1472.314453"/>
    <use xlink:href="#DejaVuSans-Bold-20" x="1515.820312"/>
    <use xlink:href="#DejaVuSans-Bold-46" x="1550.634766"/>
    <use xlink:href="#DejaVuSans-Bold-6f" x="1614.945312"/>
    <use xlink:href="#DejaVuSans-Bold-63" x="1683.646484"/>
    <use xlink:href="#DejaVuSans-Bold-61" x="1742.923828"/>
    <use xlink:href="#DejaVuSans-Bold-6c" x="1810.404297"/>
    <use xlink:href="#DejaVuSans-Bold-20" x="1844.681641"/>
    <use xlink:href="#DejaVuSans-Bold-54" x="1879.496094"/>
    <use xlink:href="#DejaVuSans-Bold-65" x="1934.458984"/>
    <use xlink:href="#DejaVuSans-Bold-72" x="2002.28125"/>
    <use xlink:href="#DejaVuSans-Bold-6d" x="2051.597656"/>
    <use xlink:href="#DejaVuSans-Bold-73" x="2155.796875"/>
    <use xlink:href="#DejaVuSans-Bold-20" x="2215.318359"/>
    <use xlink:href="#DejaVuSans-Bold-69" x="2250.132812"/>
    <use xlink:href="#DejaVuSans-Bold-6e" x="2284.410156"/>
    <use xlink:href="#DejaVuSans-Bold-20" x="2355.601562"/>
    <use xlink:href="#DejaVuSans-Bold-54" x="2390.416016"/>
    <use xlink:href="#DejaVuSans-Bold-69" x="2458.628906"/>
    <use xlink:href="#DejaVuSans-Bold-74" x="2492.90625"/>
    <use xlink:href="#DejaVuSans-Bold-6c" x="2540.708984"/>
    <use xlink:href="#DejaVuSans-Bold-65" x="2574.986328"/>
    <use xlink:href="#DejaVuSans-Bold-73" x="2642.808594"/>
    <use xlink:href="#DejaVuSans-Bold-2f" x="2702.330078"/>
    <use xlink:href="#DejaVuSans-Bold-41" x="2738.853516"/>
    <use xlink:href="#DejaVuSans-Bold-62" x="2816.246094"/>
    <use xlink:href="#DejaVuSans-Bold-73" x="2887.828125"/>
    <use xlink:href="#DejaVuSans-Bold-74" x="2947.349609"/>
    <use xlink:href="#DejaVuSans-Bold-72" x="2995.152344"/>
    <use xlink:href="#DejaVuSans-Bold-61" x="3044.46875"/>
    <use xlink:href="#DejaVuSans-Bold-63" x="3111.949219"/>
    <use xlink:href="#DejaVuSans-Bold-74" x="3171.226562"/>
    <use xlink:href="#DejaVuSans-Bold-73" x="3219.029297"/>
    <use xlink:href="#DejaVuSans-Bold-2c" x="3278.550781"/>
    <use xlink:href="#DejaVuSans-Bold-20" x="3316.539062"/>
    <use xlink:href="#DejaVuSans-Bold-31" x="3351.353516"/>
    <use xlink:href="#DejaVuSans-Bold-39" x="3420.933594"/>
    <use xlink:href="#DejaVuSans-Bold-34" x="3490.513672"/>
    <use xlink:href="#DejaVuSans-Bold-37" x="3560.09375"/>
    <use xlink:href="#DejaVuSans-Bold-2d" x="3629.673828"/>
    <use xlink:href="#DejaVuSans-Bold-32" x="3671.177734"/>
    <use xlink:href="#DejaVuSans-Bold-30" x="3740.757812"/>
    <use xlink:href="#DejaVuSans-Bold-32" x="3810.337891"/>
    <use xlink:href="#DejaVuSans-Bold-34" x="3879.917969"/>
   </g>
   <!-- thin line = annual percentage, thick line = centered 5-year moving average -->
   <g transform="translate(101.505385 33.51475) scale(0.14 -0.14)">
    <defs>
     <path id="DejaVuSans-Bold-3d" d="M 678 3084 
L 4684 3084 
L 4684 2350 
L 678 2350 
L 678 3084 
z
M 678 1663 
L 4684 1663 
L 4684 922 
L 678 922 
L 678 1663 
z
" transform="scale(0.015625)"/>
     <path id="DejaVuSans-Bold-6b" d="M 538 4863 
L 1656 4863 
L 1656 2216 
L 2944 3500 
L 4244 3500 
L 2534 1894 
L 4378 0 
L 3022 0 
L 1656 1459 
L 1656 0 
L 538 0 
L 538 4863 
z
" transform="scale(0.015625)"/>
     <path id="DejaVuSans-Bold-64" d="M 2919 2988 
L 2919 4863 
L 4044 4863 
L 4044 0 
L 2919 0 
L 2919 506 
Q 2688 197 2409 53 
Q 2131 -91 1766 -91 
Q 1119 -91 703 423 
Q 288 938 288 1747 
Q 288 2556 703 3070 
Q 1119 3584 1766 3584 
Q 2128 3584 2408 3439 
Q 2688 3294 2919 2988 
z
M 2181 722 
Q 2541 722 2730 984 
Q 2919 1247 2919 1747 
Q 2919 2247 2730 2509 
Q 2541 2772 2181 2772 
Q 1825 2772 1636 2509 
Q 1447 2247 1447 1747 
Q 1447 1247 1636 984 
Q 1825 722 2181 722 
z
" transform="scale(0.015625)"/>
     <path id="DejaVuSans-Bold-35" d="M 678 4666 
L 3669 4666 
L 3669 3781 
L 1638 3781 
L 1638 3059 
Q 1775 3097 1914 3117 
Q 2053 3138 2203 3138 
Q 3056 3138 3531 2711 
Q 4006 2284 4006 1522 
Q 4006 766 3489 337 
Q 2972 -91 2053 -91 
Q 1656 -91 1267 -14 
Q 878 63 494 219 
L 494 1166 
Q 875 947 1217 837 
Q 1559 728 1863 728 
Q 2300 728 2551 942 
Q 2803 1156 2803 1522 
Q 2803 1891 2551 2103 
Q 2300 2316 1863 2316 
Q 1603 2316 1309 2248 
Q 1016 2181 678 2041 
L 678 4666 
z
" transform="scale(0.015625)"/>
     <path id="DejaVuSans-Bold-79" d="M 78 3500 
L 1197 3500 
L 2138 1125 
L 2938 3500 
L 4056 3500 
L 2584 -331 
Q 2363 -916 2067 -1148 
Q 1772 -1381 1288 -1381 
L 641 -1381 
L 641 -647 
L 991 -647 
Q 1275 -647 1404 -556 
Q 1534 -466 1606 -231 
L 1638 -134 
L 78 3500 
z
" transform="scale(0.015625)"/>
    </defs>
    <use xlink:href="#DejaVuSans-Bold-74"/>
    <use xlink:href="#DejaVuSans-Bold-68" x="47.802734"/>
    <use xlink:href="#DejaVuSans-Bold-69" x="118.994141"/>
    <use xlink:href="#DejaVuSans-Bold-6e" x="153.271484"/>
    <use xlink:href="#DejaVuSans-Bold-20" x="224.462891"/>
    <use xlink:href="#DejaVuSans-Bold-6c" x="259.277344"/>
    <use xlink:href="#DejaVuSans-Bold-69" x="293.554688"/>
    <use xlink:href="#DejaVuSans-Bold-6e" x="327.832031"/>
    <use xlink:href="#DejaVuSans-Bold-65" x="399.023438"/>
    <use xlink:href="#DejaVuSans-Bold-20" x="466.845703"/>
    <use xlink:href="#DejaVuSans-Bold-3d" x="501.660156"/>
    <use xlink:href="#DejaVuSans-Bold-20" x="585.449219"/>
    <use xlink:href="#DejaVuSans-Bold-61" x="620.263672"/>
    <use xlink:href="#DejaVuSans-Bold-6e" x="687.744141"/>
    <use xlink:href="#DejaVuSans-Bold-6e" x="758.935547"/>
    <use xlink:href="#DejaVuSans-Bold-75" x="830.126953"/>
    <use xlink:href="#DejaVuSans-Bold-61" x="901.318359"/>
    <use xlink:href="#DejaVuSans-Bold-6c" x="968.798828"/>
    <use xlink:href="#DejaVuSans-Bold-20" x="1003.076172"/>
    <use xlink:href="#DejaVuSans-Bold-70" x="1037.890625"/>
    <use xlink:href="#DejaVuSans-Bold-65" x="1109.472656"/>
    <use xlink:href="#DejaVuSans-Bold-72" x="1177.294922"/>
    <use xlink:href="#DejaVuSans-Bold-63" x="1226.611328"/>
    <use xlink:href="#DejaVuSans-Bold-65" x="1285.888672"/>
    <use xlink:href="#DejaVuSans-Bold-6e" x="1353.710938"/>
    <use xlink:href="#DejaVuSans-Bold-74" x="1424.902344"/>
    <use xlink:href="#DejaVuSans-Bold-61" x="1472.705078"/>
    <use xlink:href="#DejaVuSans-Bold-67" x="1540.185547"/>
    <use xlink:href="#DejaVuSans-Bold-65" x="1611.767578"/>
    <use xlink:href="#DejaVuSans-Bold-2c" x="1679.589844"/>
    <use xlink:href="#DejaVuSans-Bold-20" x="1717.578125"/>
    <use xlink:href="#DejaVuSans-Bold-74" x="1752.392578"/>
    <use xlink:href="#DejaVuSans-Bold-68" x="1800.195312"/>
    <use xlink:href="#DejaVuSans-Bold-69" x="1871.386719"/>
    <use xlink:href="#DejaVuSans-Bold-63" x="1905.664062"/>
    <use xlink:href="#DejaVuSans-Bold-6b" x="1964.941406"/>
    <use xlink:href="#DejaVuSans-Bold-20" x="2031.445312"/>
    <use xlink:href="#DejaVuSans-Bold-6c" x="2066.259766"/>
    <use xlink:href="#DejaVuSans-Bold-69" x="2100.537109"/>
    <use xlink:href="#DejaVuSans-Bold-6e" x="2134.814453"/>
    <use xlink:href="#DejaVuSans-Bold-65" x="2206.005859"/>
    <use xlink:href="#DejaVuSans-Bold-20" x="2273.828125"/>
    <use xlink:href="#DejaVuSans-Bold-3d" x="2308.642578"/>
    <use xlink:href="#DejaVuSans-Bold-20" x="2392.431641"/>
    <use xlink:href="#DejaVuSans-Bold-63" x="2427.246094"/>
    <use xlink:href="#DejaVuSans-Bold-65" x="2486.523438"/>
    <use xlink:href="#DejaVuSans-Bold-6e" x="2554.345703"/>
    <use xlink:href="#DejaVuSans-Bold-74" x="2625.537109"/>
    <use xlink:href="#DejaVuSans-Bold-65" x="2673.339844"/>
    <use xlink:href="#DejaVuSans-Bold-72" x="2741.162109"/>
    <use xlink:href="#DejaVuSans-Bold-65" x="2790.478516"/>
    <use xlink:href="#DejaVuSans-Bold-64" x="2858.300781"/>
    <use xlink:href="#DejaVuSans-Bold-20" x="2929.882812"/>
    <use xlink:href="#DejaVuSans-Bold-35" x="2964.697266"/>
    <use xlink:href="#DejaVuSans-Bold-2d" x="3034.277344"/>
    <use xlink:href="#DejaVuSans-Bold-79" x="3075.78125"/>
    <use xlink:href="#DejaVuSans-Bold-65" x="3140.966797"/>
    <use xlink:href="#DejaVuSans-Bold-61" x="3208.789062"/>
    <use xlink:href="#DejaVuSans-Bold-72" x="3276.269531"/>
    <use xlink:href="#DejaVuSans-Bold-20" x="3325.585938"/>
    <use xlink:href="#DejaVuSans-Bold-6d" x="3360.400391"/>
    <use xlink:href="#DejaVuSans-Bold-6f" x="3464.599609"/>
    <use xlink:href="#DejaVuSans-Bold-76" x="3533.300781"/>
    <use xlink:href="#DejaVuSans-Bold-69" x="3598.486328"/>
    <use xlink:href="#DejaVuSans-Bold-6e" x="3632.763672"/>
    <use xlink:href="#DejaVuSans-Bold-67" x="3703.955078"/>
    <use xlink:href="#DejaVuSans-Bold-20" x="3775.537109"/>
    <use xlink:href="#DejaVuSans-Bold-61" x="3810.351562"/>
    <use xlink:href="#DejaVuSans-Bold-76" x="3877.832031"/>
    <use xlink:href="#DejaVuSans-Bold-65" x="3943.017578"/>
    <use xlink:href="#DejaVuSans-Bold-72" x="4010.839844"/>
    <use xlink:href="#DejaVuSans-Bold-61" x="4060.15625"/>
    <use xlink:href="#DejaVuSans-Bold-67" x="4127.636719"/>
    <use xlink:href="#DejaVuSans-Bold-65" x="4199.21875"/>
   </g>
  </g>
 </g>
 <defs>
  <clipPath id="pc414a48edc">
   <rect x="58.001719" y="57.654292" width="675.826246" height="170.973193"/>
  </clipPath>
  <clipPath id="p13113610a8">
   <rect x="58.001719" y="253.246091" width="675.826246" height="170.973193"/>
  </clipPath>
  <clipPath id="pe4d25fa3c3">
   <rect x="58.001719" y="448.837889" width="675.826246" height="170.973193"/>
  </clipPath>
 </defs>
</svg>
